<svg width="110" height="32" viewBox="0 0 110 32" fill="none" xmlns="http://www.w3.org/2000/svg">
<path d="M2.97624 8.09626C3.01592 8.09606 3.0556 8.09587 3.09648 8.09567C3.22875 8.09508 3.361 8.09487 3.49327 8.09467C3.58837 8.09433 3.68347 8.09398 3.77857 8.0936C4.09007 8.09248 4.40157 8.09193 4.71307 8.09139C4.82041 8.09118 4.92774 8.09096 5.03507 8.09073C5.53895 8.08972 6.04283 8.08896 6.54672 8.08851C7.12845 8.08799 7.71017 8.08658 8.2919 8.08443C8.7417 8.08282 9.19149 8.08203 9.64129 8.08185C9.90993 8.08172 10.1786 8.08124 10.4472 8.0799C10.6996 8.07866 10.9521 8.07843 11.2045 8.07898C11.2972 8.07901 11.3899 8.07867 11.4826 8.07794C11.609 8.07699 11.7354 8.07737 11.8618 8.07807C11.9326 8.07794 12.0033 8.07782 12.0762 8.07768C12.2544 8.10412 12.2544 8.10412 12.3925 8.20046C12.481 8.31775 12.481 8.31775 12.4774 8.51136C12.4243 8.69161 12.4243 8.69161 12.2544 8.79842C12.123 8.81157 12.123 8.81157 11.9652 8.81127C11.8755 8.81149 11.8755 8.81149 11.784 8.81172C11.7184 8.81133 11.6528 8.81095 11.5852 8.81055C11.5162 8.81057 11.4471 8.81058 11.3759 8.8106C11.1865 8.81054 10.997 8.81 10.8076 8.80926C10.6096 8.80859 10.4116 8.80853 10.2137 8.8084C9.83876 8.80807 9.46386 8.80719 9.08896 8.80612C8.66215 8.80492 8.23534 8.80434 7.80854 8.8038C6.93055 8.80268 6.05257 8.80081 5.17459 8.79842C5.17459 8.83367 5.17459 8.86892 5.17459 8.90524C5.20869 8.91984 5.24278 8.93443 5.27791 8.94947C5.76285 9.19576 6.04682 9.85177 6.19859 10.3238C6.26695 10.5921 6.2662 10.8543 6.26459 11.129C6.26472 11.185 6.26485 11.241 6.26498 11.2986C6.26528 11.4855 6.26478 11.6724 6.26429 11.8592C6.26436 11.9935 6.26447 12.1277 6.26464 12.262C6.2649 12.5508 6.26485 12.8396 6.26454 13.1285C6.26407 13.5854 6.26471 14.0424 6.26551 14.4994C6.26577 14.656 6.26602 14.8126 6.26627 14.9691C6.26633 15.0083 6.2664 15.0474 6.26646 15.0877C6.26715 15.5325 6.26758 15.9774 6.26791 16.4222C6.26795 16.4629 6.26798 16.5035 6.26801 16.5454C6.26849 17.2037 6.2683 17.862 6.26796 18.5204C6.26764 19.1973 6.26841 19.8742 6.27009 20.5511C6.27108 20.9681 6.27118 21.385 6.27011 21.802C6.26937 22.1219 6.27011 22.4417 6.27138 22.7616C6.27167 22.8925 6.27147 23.0233 6.27075 23.1541C6.24989 24.0781 6.24989 24.0781 6.59056 24.9277C6.64138 25.0136 6.64138 25.0136 6.69322 25.1012C6.9929 25.4565 7.27851 25.7092 7.72333 25.889C7.72333 25.9243 7.72333 25.9595 7.72333 25.9958C8.68451 26.1922 9.42517 26.1108 10.2657 25.612C10.6785 25.3177 10.9633 24.7948 11.1217 24.3402C11.1557 24.0826 11.1563 23.8284 11.1535 23.5691C11.1526 23.4368 11.1526 23.3044 11.1537 23.1721C11.1531 23.1143 11.1525 23.0565 11.1519 22.997C11.1858 22.8016 11.2392 22.7509 11.4049 22.6311C11.5866 22.6048 11.5866 22.6048 11.8062 22.6054C11.8467 22.6052 11.8871 22.6051 11.9288 22.6049C12.0643 22.6045 12.1997 22.6057 12.3352 22.6069C12.4324 22.6069 12.5295 22.6069 12.6266 22.6068C12.8904 22.6067 13.1541 22.608 13.4179 22.6095C13.6935 22.6108 13.9691 22.6109 14.2447 22.6112C14.7666 22.6118 15.2885 22.6136 15.8105 22.6157C16.4047 22.6181 16.9988 22.6193 17.593 22.6204C18.8154 22.6226 20.0377 22.6264 21.26 22.6311C21.2605 20.9501 21.2593 19.2691 21.2557 17.5881C21.2553 17.3896 21.2549 17.1912 21.2545 16.9927C21.2544 16.9532 21.2543 16.9137 21.2542 16.873C21.253 16.2332 21.2529 15.5935 21.2533 14.9538C21.2536 14.2974 21.2527 13.6409 21.2506 12.9845C21.2493 12.5794 21.249 12.1744 21.25 11.7694C21.2507 11.4588 21.2496 11.1481 21.2478 10.8375C21.2474 10.7101 21.2475 10.5827 21.2482 10.4553C21.2492 10.2814 21.248 10.1076 21.2464 9.93371C21.2471 9.88326 21.2479 9.83282 21.2487 9.78084C21.2429 9.47067 21.1794 9.30629 20.9495 9.08175C20.7611 8.929 20.5858 8.90497 20.3467 8.88521C20.1272 8.85183 20.1272 8.85183 20.0139 8.76505C19.935 8.58835 19.9354 8.45397 19.9573 8.26434C20.0139 8.16087 20.0139 8.16087 20.1272 8.10412C20.5722 8.05167 20.9917 8.17061 21.3525 8.42144C21.5369 8.57325 21.6902 8.71268 21.8264 8.90524C21.8264 8.95812 21.8264 9.01099 21.8264 9.06547C21.8638 9.06547 21.9011 9.06547 21.9397 9.06547C22.0434 9.39867 22.0688 9.69672 22.0666 10.0429C22.0667 10.1239 22.0667 10.1239 22.0668 10.2066C22.067 10.3868 22.0664 10.5671 22.0658 10.7473C22.0658 10.8768 22.0658 11.0063 22.0658 11.1358C22.0659 11.4142 22.0655 11.6927 22.0649 11.9711C22.064 12.3736 22.0637 12.7762 22.0636 13.1787C22.0633 13.8319 22.0626 14.4851 22.0615 15.1383C22.0604 15.7726 22.0596 16.4069 22.0592 17.0413C22.0591 17.0804 22.0591 17.1195 22.0591 17.1598C22.0589 17.3562 22.0588 17.5525 22.0586 17.7488C22.0575 19.3763 22.0555 21.0037 22.0529 22.6311C22.0998 22.63 22.1466 22.6289 22.1949 22.6277C22.4072 22.6233 22.6194 22.6205 22.8317 22.6178C22.9055 22.616 22.9792 22.6142 23.0552 22.6123C23.126 22.6117 23.1968 22.611 23.2698 22.6103C23.335 22.6091 23.4003 22.608 23.4675 22.6069C23.6754 22.6363 23.7404 22.6883 23.8654 22.8447C23.8929 22.9978 23.8929 22.9978 23.8915 23.174C23.8913 23.2383 23.891 23.3027 23.8908 23.369C23.8894 23.4362 23.888 23.5033 23.8866 23.5724C23.8865 23.6713 23.8865 23.6713 23.8864 23.7721C23.8806 24.3467 23.8161 24.8246 23.522 25.3316C23.4878 25.3905 23.4878 25.3905 23.453 25.4507C23.0209 26.1701 22.3237 26.5768 21.4865 26.7969C21.1559 26.8441 20.8355 26.8581 20.5015 26.8575C20.4497 26.8576 20.398 26.8577 20.3447 26.8579C20.1722 26.8582 19.9997 26.8582 19.8272 26.8581C19.7032 26.8583 19.5791 26.8585 19.4551 26.8587C19.1188 26.8591 18.7824 26.8593 18.4461 26.8593C18.2358 26.8593 18.0255 26.8594 17.8153 26.8596C17.119 26.8601 16.4228 26.8603 15.7265 26.8603C15.6891 26.8603 15.6516 26.8603 15.613 26.8603C15.5755 26.8603 15.5379 26.8602 15.4993 26.8602C14.8914 26.8602 14.2835 26.8607 13.6756 26.8615C13.0503 26.8623 12.4251 26.8626 11.7998 26.8626C11.4492 26.8626 11.0986 26.8627 10.748 26.8633C10.4181 26.8638 10.0883 26.8638 9.75846 26.8634C9.63771 26.8634 9.51695 26.8635 9.3962 26.8638C8.2591 26.8667 7.33086 26.7719 6.47696 26.0024C6.12513 25.6724 5.83724 25.3254 5.68434 24.8743C5.68434 24.8038 5.68434 24.7333 5.68434 24.6606C5.64696 24.6606 5.60958 24.6606 5.57106 24.6606C5.50675 24.3694 5.5061 24.0869 5.50622 23.791C5.50602 23.7357 5.50583 23.6805 5.50562 23.6236C5.50501 23.4386 5.50481 23.2537 5.50459 23.0687C5.50423 22.936 5.50385 22.8034 5.50344 22.6707C5.50261 22.385 5.50195 22.0993 5.50141 21.8136C5.50062 21.3998 5.49942 20.986 5.4981 20.5722C5.49595 19.8999 5.49397 19.2276 5.49217 18.5553C5.49207 18.5151 5.49196 18.4749 5.49185 18.4335C5.49033 17.8632 5.48898 17.293 5.48769 16.7227C5.48756 16.6625 5.48756 16.6625 5.48742 16.6011C5.48733 16.5611 5.48724 16.521 5.48714 16.4797C5.48563 15.8103 5.48368 15.1408 5.48138 14.4714C5.47998 14.059 5.47894 13.6465 5.47837 13.2341C5.4779 12.9176 5.47685 12.6011 5.47559 12.2846C5.47517 12.1551 5.47493 12.0257 5.47491 11.8963C5.47485 11.719 5.47409 11.5417 5.47318 11.3644C5.47332 11.3137 5.47347 11.263 5.47362 11.2108C5.47068 10.8437 5.41762 10.494 5.34451 10.1336C5.30713 10.1336 5.26974 10.1336 5.23123 10.1336C5.20203 10.0708 5.17282 10.0081 5.14273 9.94336C4.88653 9.46357 4.42381 9.14475 3.89314 8.96866C3.239 8.8031 2.46763 8.86069 1.87538 9.1823C1.34347 9.53267 0.995785 9.96258 0.852347 10.5642C0.777554 10.9928 0.753572 11.4186 1.00456 11.8012C1.24808 12.1196 1.55253 12.4114 1.96499 12.5176C2.21656 12.5499 2.46984 12.5523 2.72342 12.5597C2.93766 12.5951 3.00603 12.6424 3.1356 12.804C3.16392 12.9376 3.16392 12.9376 3.1356 13.0711C3.04068 13.2016 2.96578 13.2742 2.79778 13.3053C2.66064 13.3136 2.52607 13.3143 2.38867 13.3114C2.34009 13.3108 2.29151 13.3101 2.24146 13.3095C1.8906 13.299 1.62003 13.2558 1.32316 13.0711C1.2592 13.0362 1.2592 13.0362 1.19395 13.0006C0.686921 12.7089 0.271623 12.2598 0.0704674 11.7292C0.0100354 11.4791 0.00174979 11.2471 0.00276641 10.9915C0.00185377 10.9458 0.000941135 10.9001 8.4357e-07 10.8531C-0.000248866 10.5444 0.0549211 10.3069 0.190382 10.0268C0.226523 9.94605 0.226523 9.94605 0.263393 9.86367C0.668547 9.05713 1.35381 8.48956 2.22938 8.15753C2.48059 8.10866 2.72006 8.09709 2.97624 8.09626Z" fill="#080808"/>
<path d="M26.9239 0.573582C26.6427 0.693412 26.3602 0.808154 26.0743 0.917397C25.8129 1.01874 25.5705 1.13437 25.3289 1.27227C25.2247 1.3213 25.2247 1.3213 25.0548 1.3213C25.0548 1.1803 25.0548 1.0393 25.0548 0.894031C25.0128 0.90959 24.9708 0.925149 24.9276 0.94118C24.4461 1.11787 23.9609 1.28179 23.4733 1.44266C22.8138 1.65928 22.8138 1.65928 22.1644 1.90148C22.0223 1.95281 21.8816 1.99611 21.7361 2.03792C21.1099 2.21158 21.1099 2.21158 20.6617 2.63647C20.587 2.77588 20.5267 2.91646 20.4653 3.06144C20.4151 3.1796 20.359 3.29284 20.3007 3.40755C20.1831 3.6527 20.119 3.9002 20.0597 4.16277C20.0101 4.32452 19.9508 4.44424 19.844 4.57919C19.788 4.57919 19.7319 4.57919 19.6741 4.57919C19.6741 4.06807 19.6741 3.55696 19.6741 3.03035C19.1303 3.27136 18.6709 3.52694 18.2015 3.88488C18.1471 3.92592 18.0927 3.96695 18.0367 4.00922C17.8827 4.12666 17.7302 4.24557 17.5785 4.36556C17.5357 4.39922 17.4929 4.43289 17.4488 4.46757C17.2711 4.61038 17.109 4.75115 16.9625 4.923C16.9228 4.96817 16.8831 5.01333 16.8422 5.05986C16.8048 5.05986 16.7674 5.05986 16.7289 5.05986C16.7291 5.08973 16.7294 5.11961 16.7297 5.15038C16.7322 5.46053 16.7339 5.77067 16.7351 6.08082C16.7357 6.19666 16.7365 6.3125 16.7374 6.42834C16.7388 6.59458 16.7395 6.76081 16.74 6.92706C16.7405 6.97908 16.7411 7.0311 16.7417 7.08469C16.7417 7.1328 16.7417 7.18091 16.7418 7.23048C16.742 7.27294 16.7423 7.31539 16.7425 7.35914C16.7289 7.46322 16.7289 7.46322 16.6156 7.57004C16.5018 7.56473 16.5018 7.56473 16.3891 7.51663C16.3287 7.41439 16.3287 7.41439 16.2842 7.2811C16.2675 7.23259 16.2509 7.18409 16.2337 7.13412C16.2172 7.083 16.2007 7.03188 16.1837 6.97921C16.1668 6.92954 16.1499 6.87987 16.1324 6.82869C16.0365 6.54398 15.9526 6.25838 15.8793 5.9678C15.4357 6.11233 15.1364 6.45172 14.9255 6.8386C14.6714 7.39531 14.5167 7.93716 14.5021 8.54432C14.5003 8.60588 14.5003 8.60588 14.4985 8.66868C14.4948 8.79871 14.4915 8.92875 14.4881 9.05879C14.4857 9.14739 14.4832 9.23598 14.4807 9.32458C14.4747 9.54085 14.4689 9.75712 14.4633 9.9734C14.3571 10.0068 14.3571 10.0068 14.2368 10.0268C14.1102 9.90741 14.0882 9.83933 14.0381 9.67966C14.0231 9.63229 14.0082 9.58493 13.9928 9.53613C13.9775 9.48656 13.9622 9.43699 13.9465 9.38592C13.9308 9.33635 13.9151 9.28678 13.8989 9.23571C13.7837 8.86732 13.7837 8.86732 13.7837 8.74502C13.7463 8.74502 13.7089 8.74502 13.6704 8.74502C13.6492 8.79913 13.6492 8.79913 13.6275 8.85434C13.5434 9.0428 13.4415 9.22008 13.3376 9.39927C13.2594 9.53706 13.1817 9.67511 13.104 9.81318C13.0802 9.85518 13.0564 9.89717 13.0319 9.94044C12.8423 10.3052 12.7656 10.7052 12.6749 11.0998C12.6458 11.2234 12.6127 11.346 12.5801 11.4688C12.543 11.6273 12.5331 11.774 12.535 11.9362C12.5354 11.9788 12.5357 12.0215 12.5361 12.0655C12.5366 12.0977 12.5371 12.1299 12.5376 12.1631C12.5679 12.1282 12.5679 12.1282 12.5987 12.0925C13.2043 11.3934 13.8218 10.706 14.4647 10.037C14.5692 9.92772 14.6723 9.81738 14.7749 9.70636C15.6359 8.77655 16.5465 7.8932 17.4731 7.02156C17.6095 6.89327 17.7456 6.76473 17.8816 6.63613C18.0141 6.511 18.1467 6.38607 18.2794 6.26113C18.3275 6.21567 18.3756 6.17021 18.4251 6.12338C18.6688 5.89448 18.9159 5.67299 19.1774 5.46216C19.3541 5.31788 19.5222 5.16476 19.6918 5.01313C19.9818 4.75563 20.278 4.51221 20.5898 4.27814C20.8253 4.0929 21.047 3.89429 21.2681 3.69408C21.4439 3.53668 21.6107 3.40629 21.8264 3.29739C21.7487 3.46629 21.6646 3.56409 21.5149 3.68126C21.4742 3.71376 21.4335 3.74626 21.3916 3.77974C21.3482 3.81443 21.3047 3.84913 21.26 3.88488C21.0699 4.04371 20.8818 4.20466 20.6936 4.36556C20.6145 4.4332 20.6145 4.4332 20.5338 4.50222C20.0764 4.89568 19.6346 5.30245 19.1976 5.71588C19.0856 5.82175 18.9733 5.92733 18.861 6.03289C18.5428 6.33286 18.2264 6.6315 17.935 6.95517C17.8407 7.05907 17.7394 7.15465 17.6351 7.24959C17.4543 7.41782 17.2856 7.59206 17.1201 7.77366C16.9946 7.90946 16.8653 8.04169 16.736 8.17422C16.5001 8.41787 16.2774 8.66906 16.0576 8.92569C15.9447 9.05545 15.8285 9.18106 15.7094 9.3058C15.4538 9.57404 15.2139 9.85354 14.9731 10.1336C14.8917 10.2271 14.8103 10.3206 14.7288 10.414C14.6402 10.5163 14.5517 10.6187 14.4633 10.7211C14.4374 10.7511 14.4115 10.7812 14.3848 10.8121C13.96 11.3049 13.5543 11.8082 13.1607 12.3234C14.2229 11.8313 15.187 11.1957 16.0773 10.4618C16.2191 10.3473 16.2191 10.3473 16.3891 10.2404C16.4108 10.031 16.3917 9.87523 16.3289 9.67298C16.2756 9.49213 16.2757 9.40234 16.3324 9.22569C16.6524 9.25779 16.9363 9.33653 17.2386 9.43932C17.2386 9.47457 17.2386 9.50982 17.2386 9.54614C17.3695 9.54614 17.5003 9.54614 17.6351 9.54614C17.6351 9.51089 17.6351 9.47564 17.6351 9.43932C17.6701 9.42438 17.7051 9.40944 17.7411 9.39405C18.5096 9.05103 19.0447 8.5336 19.5113 7.87046C19.5341 7.83868 19.5569 7.80691 19.5804 7.77417C19.6634 7.65166 19.7296 7.55352 19.7343 7.40585C19.6095 7.19261 19.4056 7.03305 19.2241 6.86259C19.1077 6.71551 19.1077 6.71551 19.1288 6.5728C19.1405 6.53177 19.1523 6.49074 19.1644 6.44847C19.2057 6.44747 19.2471 6.44648 19.2897 6.44545C20.3801 6.44127 20.3801 6.44127 21.26 5.91439C21.3165 5.866 21.3736 5.81811 21.431 5.77065C21.6046 5.62648 21.7723 5.47744 21.9397 5.3269C21.9818 5.29 22.0239 5.2531 22.0673 5.21508C22.3953 4.91974 22.7573 4.56268 22.9025 4.15192C22.8629 4.14869 22.8234 4.14545 22.7826 4.14212C22.7053 4.13541 22.7053 4.13541 22.6264 4.12856C22.5495 4.12205 22.5495 4.12205 22.4711 4.11541C22.3361 4.09852 22.3361 4.09852 22.2228 4.04511C22.2228 3.97461 22.2228 3.90411 22.2228 3.83148C22.3689 3.76868 22.5153 3.70646 22.6618 3.64455C22.7031 3.62672 22.7444 3.60888 22.787 3.59051C22.8272 3.57365 22.8673 3.55678 22.9087 3.5394C22.9455 3.52374 22.9823 3.50807 23.0202 3.49194C23.1291 3.45762 23.1291 3.45762 23.3556 3.45762C23.3556 3.42237 23.3556 3.38712 23.3556 3.3508C23.4084 3.33387 23.4612 3.31693 23.5156 3.29948C23.9953 3.13715 24.3594 2.94135 24.7552 2.6371C25.3278 2.1971 25.9772 1.85352 26.6174 1.51052C26.7839 1.42115 26.947 1.32843 27.1088 1.2318C27.2663 1.1381 27.4228 1.05307 27.5929 0.980819C27.6342 0.962781 27.6754 0.944743 27.7179 0.926159C27.8301 0.894031 27.8301 0.894031 28 0.947439C27.9607 0.966733 27.9215 0.986027 27.881 1.00591C27.0602 1.41099 26.2642 1.82886 25.5079 2.33605C25.4496 2.37495 25.3912 2.41385 25.3311 2.45392C25.1205 2.59673 24.9131 2.7432 24.7061 2.89058C24.6757 2.91218 24.6453 2.93378 24.614 2.95604C24.5291 3.01658 24.4444 3.07738 24.3596 3.13821C24.0443 3.3542 23.7294 3.47739 23.3645 3.60282C23.1856 3.66569 23.1856 3.66569 23.0353 3.75971C22.9025 3.83148 22.9025 3.83148 22.676 3.83148C22.676 3.86672 22.676 3.90197 22.676 3.93829C22.8442 3.95592 23.0124 3.97354 23.1857 3.9917C23.2423 4.20533 23.2423 4.20533 23.1945 4.29955C23.1689 4.33083 23.1434 4.36212 23.1171 4.39435C23.0889 4.42949 23.0607 4.46463 23.0316 4.50084C23.0007 4.53771 22.9698 4.57458 22.9379 4.61257C22.9067 4.65071 22.8754 4.68886 22.8433 4.72816C22.594 5.02953 22.3331 5.31764 22.0529 5.59394C22.015 5.63305 21.9771 5.67215 21.9381 5.71244C21.8112 5.83905 21.6798 5.95732 21.5432 6.07461C21.5142 6.09981 21.4851 6.12501 21.4552 6.15097C20.8788 6.63837 20.3847 6.7588 19.6175 6.76892C19.6549 6.80438 19.6924 6.83983 19.731 6.87636C19.7788 6.92352 19.8266 6.97068 19.8759 7.01927C19.9239 7.06574 19.9718 7.11221 20.0212 7.16009C20.1272 7.303 20.1272 7.303 20.1283 7.43089C20.053 7.61235 19.9581 7.77784 19.8511 7.9439C19.8286 7.97884 19.8061 8.01378 19.7829 8.04979C19.231 8.88369 18.5042 9.57542 17.4864 9.87326C17.2072 9.86351 16.9796 9.76381 16.7289 9.65296C16.7476 9.69812 16.7663 9.74328 16.7855 9.78981C16.848 9.99243 16.8647 10.1372 16.8422 10.3473C16.7298 10.4701 16.7298 10.4701 16.5731 10.5776C16.516 10.6182 16.4588 10.6588 16.3999 10.7007C16.3403 10.7427 16.2806 10.7847 16.2191 10.8279C16.1089 10.9153 15.9992 11.0032 15.8899 11.0916C15.2994 11.5557 14.6698 11.9515 14.0102 12.3234C13.9365 12.3659 13.8628 12.4084 13.7892 12.451C13.7142 12.4942 13.6392 12.5373 13.5642 12.5804C13.5299 12.6003 13.4955 12.6203 13.4601 12.6408C13.2934 12.7358 13.1358 12.8138 12.9549 12.8848C12.5868 13.0382 12.4025 13.2613 12.1872 13.5684C12.1466 13.6252 12.1466 13.6252 12.1053 13.6831C12.0495 13.7615 11.9938 13.8399 11.9384 13.9185C11.8646 14.023 11.7902 14.1271 11.7155 14.231C11.4196 14.6441 11.135 15.0634 10.8546 15.486C10.7742 15.607 10.6931 15.7277 10.6119 15.8483C10.568 15.915 10.568 15.915 10.5232 15.983C10.4793 16.0481 10.4793 16.0481 10.4345 16.1145C10.4082 16.1539 10.382 16.1932 10.355 16.2338C10.2721 16.329 10.2721 16.329 10.0668 16.4024C9.87561 16.3824 9.87561 16.3824 9.73401 16.2722C9.62666 16.074 9.64393 16.008 9.70569 15.7949C9.78509 15.6567 9.88041 15.5314 9.97826 15.4043C10.0201 15.3486 10.0201 15.3486 10.0628 15.2917C10.1218 15.2134 10.1809 15.1352 10.2403 15.0571C10.3243 14.9461 10.4071 14.8343 10.4893 14.7221C10.9173 14.1404 11.3706 13.578 11.8293 13.0176C11.9673 12.8448 12.0412 12.738 12.0538 12.523C12.0587 12.4541 12.0587 12.4541 12.0637 12.3838C12.0688 12.3092 12.0688 12.3092 12.0739 12.2332C12.111 11.7748 12.1814 11.3311 12.2828 10.8813C12.2949 10.8275 12.307 10.7737 12.3194 10.7183C12.3785 10.4645 12.443 10.2179 12.5376 9.9734C12.575 9.9734 12.6124 9.9734 12.6509 9.9734C12.6573 9.92673 12.6636 9.88005 12.6702 9.83196C12.7989 9.21583 13.2741 8.64813 13.6704 8.15753C13.8049 8.16754 13.8049 8.16754 13.9536 8.21094C14.0195 8.34717 14.0195 8.34717 14.0669 8.47798C14.0743 8.44005 14.0817 8.40212 14.0893 8.36304C14.1236 8.18871 14.159 8.01457 14.1943 7.84042C14.2059 7.78076 14.2175 7.72111 14.2295 7.65965C14.4048 6.80551 14.8423 6.13258 15.5749 5.59728C15.7608 5.49015 15.8379 5.45694 16.0492 5.48713C16.1883 5.76075 16.2477 5.9859 16.2758 6.28825C16.3132 6.28825 16.3505 6.28825 16.3891 6.28825C16.3876 6.2492 16.3861 6.21015 16.3846 6.16992C16.3787 5.9924 16.375 5.81491 16.3714 5.63734C16.369 5.57589 16.3666 5.51445 16.3642 5.45114C16.3571 4.9938 16.3571 4.9938 16.5141 4.79345C16.5663 4.75799 16.6185 4.72254 16.6723 4.686C16.7398 4.62105 16.7398 4.62105 16.8088 4.55478C17.5608 3.85847 18.4067 3.28543 19.3343 2.81672C19.3933 2.78636 19.4523 2.756 19.513 2.72472C19.6741 2.6565 19.6741 2.6565 19.9007 2.6565C19.9007 2.95612 19.9007 3.25574 19.9007 3.56443C19.938 3.56443 19.9754 3.56443 20.0139 3.56443C20.0196 3.51913 20.0253 3.47383 20.0312 3.42716C20.1319 2.95854 20.4473 2.3574 20.8635 2.06901C21.1199 1.95475 21.3851 1.87747 21.6565 1.80197C21.7355 1.77882 21.8145 1.75552 21.8934 1.73208C22.0116 1.697 22.1299 1.66204 22.2483 1.62764C22.47 1.56325 22.6875 1.49426 22.9034 1.41455C23.0528 1.36159 23.2041 1.31499 23.3556 1.26789C23.5423 1.20978 23.7279 1.15101 23.9114 1.0843C24.1361 1.0035 24.3633 0.930044 24.5911 0.857313C24.6284 0.8452 24.6657 0.833087 24.7042 0.820608C24.8663 0.769282 24.9958 0.733806 25.1681 0.733806C25.1681 0.874804 25.1681 1.0158 25.1681 1.16107C25.2263 1.13271 25.2844 1.10434 25.3444 1.07512C26.6014 0.468273 26.6014 0.468273 26.9239 0.573582Z" fill="#0E0E0E"/>
<path d="M13.889 18.492C14.1354 18.577 14.3837 18.6558 14.6333 18.7323C14.6728 18.7447 14.7124 18.7572 14.7532 18.77C15.6711 19.049 16.8234 19.1936 17.7484 18.8926C17.8805 18.8885 18.0128 18.8876 18.1449 18.8926C17.8668 19.1765 17.4514 19.3085 17.0687 19.4266C17.0226 19.4416 16.9764 19.4567 16.9289 19.4721C15.8579 19.7757 14.6066 19.5921 13.5923 19.1907C13.1148 19.0028 12.6543 18.8674 12.1412 18.7857C12.0838 18.7758 12.0264 18.7659 11.9673 18.7557C11.6405 18.7214 11.3156 18.7222 10.9871 18.7223C10.9169 18.7223 10.8467 18.7222 10.7744 18.7222C10.241 18.7251 9.72228 18.7597 9.19594 18.8391C9.3773 18.6397 9.57379 18.5517 9.82959 18.462C9.86752 18.4482 9.90546 18.4345 9.94455 18.4204C10.0535 18.3813 10.1627 18.3431 10.2721 18.3051C10.3219 18.2872 10.3718 18.2693 10.4232 18.2508C11.5609 17.8635 12.7963 18.114 13.889 18.492Z" fill="#0C0C0C"/>
<path d="M13.897 16.2622C13.9599 16.2618 14.0228 16.2614 14.0877 16.261C14.4716 16.2618 14.8268 16.2953 15.1996 16.3824C15.1996 16.4176 15.1996 16.4529 15.1996 16.4892C15.2305 16.495 15.2614 16.5009 15.2932 16.5069C15.611 16.5699 15.9129 16.6551 16.2191 16.7562C16.5191 16.8542 16.8211 16.9446 17.1254 17.0299C17.1884 17.0477 17.2515 17.0655 17.3165 17.0838C18.2974 17.305 19.3172 17.1777 20.2971 17.0233C20.2784 17.0761 20.2598 17.129 20.2405 17.1835C20.1059 17.2443 19.9765 17.2955 19.8369 17.3437C19.7624 17.3704 19.688 17.3971 19.6135 17.4238C19.5763 17.4369 19.5391 17.45 19.5008 17.4635C19.3954 17.5023 19.2922 17.5461 19.1891 17.5901C17.9352 18.0671 16.4401 17.7112 15.2563 17.2369C15.2006 17.2084 15.1449 17.1799 15.0875 17.1505C14.8603 17.0524 14.6386 17.0228 14.3925 16.9899C13.9088 16.922 13.9088 16.922 13.7837 16.863C13.5255 16.8499 13.2669 16.8532 13.0084 16.853C12.9366 16.8524 12.8648 16.8517 12.7908 16.8511C12.4364 16.8505 12.136 16.8598 11.8013 16.9699C11.699 16.9838 11.5963 16.9953 11.4933 17.0032C11.4199 17.0092 11.4199 17.0092 11.3449 17.0153C11.3086 17.018 11.2723 17.0206 11.2349 17.0233C11.4188 16.8194 11.6224 16.7335 11.8827 16.6427C11.9199 16.6293 11.957 16.6159 11.9952 16.6021C12.1004 16.5641 12.2057 16.5266 12.3111 16.4892C12.355 16.4706 12.3988 16.452 12.444 16.4329C12.9204 16.2728 13.3956 16.2589 13.897 16.2622Z" fill="#0A0A0A"/>
<path d="M34.9858 5.80304V9.03322C34.9858 9.76631 34.9858 10.3696 35.024 10.6903C35.0469 10.9118 35.0927 11.0798 35.3218 11.1103C35.4287 11.1256 35.5967 11.1409 35.6655 11.1409C35.7113 11.1409 35.7265 11.1638 35.7265 11.1867C35.7265 11.2249 35.6884 11.2478 35.6044 11.2478C35.1844 11.2478 34.7033 11.2249 34.6651 11.2249C34.6269 11.2249 34.1458 11.2478 33.9167 11.2478C33.8327 11.2478 33.7945 11.2325 33.7945 11.1867C33.7945 11.1638 33.8098 11.1409 33.8556 11.1409C33.9244 11.1409 34.016 11.1256 34.0847 11.1103C34.2375 11.0798 34.2756 10.9118 34.3062 10.6903C34.3444 10.3696 34.3444 9.76631 34.3444 9.03322V5.80304L33.2142 5.81831C32.7407 5.82594 32.5575 5.8794 32.4353 6.06267C32.3513 6.19249 32.3284 6.24594 32.3055 6.2994C32.2825 6.36049 32.2596 6.37576 32.2291 6.37576C32.2062 6.37576 32.1909 6.35285 32.1909 6.30704C32.1909 6.23067 32.3436 5.57394 32.3589 5.51285C32.3742 5.46704 32.4047 5.36776 32.4353 5.36776C32.4887 5.36776 32.5651 5.44413 32.7713 5.4594C32.9927 5.48231 33.2829 5.49758 33.3745 5.49758H36.2382C36.4825 5.49758 36.6582 5.48231 36.7804 5.4594C36.8949 5.44413 36.9636 5.42122 36.9942 5.42122C37.0324 5.42122 37.0324 5.46704 37.0324 5.51285C37.0324 5.74194 37.0095 6.26885 37.0095 6.35285C37.0095 6.42158 36.9865 6.45213 36.956 6.45213C36.9178 6.45213 36.9025 6.42922 36.8949 6.32231L36.8873 6.23831C36.8644 6.00922 36.6811 5.83358 35.948 5.81831L34.9858 5.80304ZM43.2515 7.68922V9.03322C43.2515 9.76631 43.2515 10.3696 43.2896 10.6903C43.3126 10.9118 43.3584 11.0798 43.5875 11.1103C43.6944 11.1256 43.8624 11.1409 43.9311 11.1409C43.9769 11.1409 43.9922 11.1638 43.9922 11.1867C43.9922 11.2249 43.954 11.2478 43.87 11.2478C43.45 11.2478 42.9689 11.2249 42.9307 11.2249C42.8926 11.2249 42.4115 11.2478 42.1824 11.2478C42.0984 11.2478 42.0602 11.2325 42.0602 11.1867C42.0602 11.1638 42.0755 11.1409 42.1213 11.1409C42.19 11.1409 42.2816 11.1256 42.3504 11.1103C42.5031 11.0798 42.5413 10.9118 42.5718 10.6903C42.61 10.3696 42.61 9.76631 42.61 9.03322V8.2314C42.61 8.20085 42.5871 8.18558 42.5642 8.18558H39.3264C39.3035 8.18558 39.2806 8.19322 39.2806 8.2314V9.03322C39.2806 9.76631 39.2806 10.3696 39.3187 10.6903C39.3416 10.9118 39.3875 11.0798 39.6166 11.1103C39.7235 11.1256 39.8915 11.1409 39.9602 11.1409C40.006 11.1409 40.0213 11.1638 40.0213 11.1867C40.0213 11.2249 39.9831 11.2478 39.8991 11.2478C39.4791 11.2478 38.998 11.2249 38.9598 11.2249C38.9216 11.2249 38.4406 11.2478 38.2115 11.2478C38.1275 11.2478 38.0893 11.2325 38.0893 11.1867C38.0893 11.1638 38.1046 11.1409 38.1504 11.1409C38.2191 11.1409 38.3107 11.1256 38.3795 11.1103C38.5322 11.0798 38.5704 10.9118 38.6009 10.6903C38.6391 10.3696 38.6391 9.76631 38.6391 9.03322V7.68922C38.6391 6.49794 38.6391 6.28413 38.6238 6.03976C38.6086 5.78013 38.5475 5.65794 38.2955 5.60449C38.2344 5.58922 38.1046 5.58158 38.0358 5.58158C38.0053 5.58158 37.9747 5.56631 37.9747 5.53576C37.9747 5.48994 38.0129 5.47467 38.0969 5.47467C38.4406 5.47467 38.9216 5.49758 38.9598 5.49758C38.998 5.49758 39.4791 5.47467 39.7082 5.47467C39.7922 5.47467 39.8304 5.48994 39.8304 5.53576C39.8304 5.56631 39.7998 5.58158 39.7693 5.58158C39.7158 5.58158 39.67 5.58922 39.5784 5.60449C39.3722 5.64267 39.3111 5.77249 39.2958 6.03976C39.2806 6.28413 39.2806 6.49794 39.2806 7.68922V7.84958C39.2806 7.88776 39.3035 7.8954 39.3264 7.8954H42.5642C42.5871 7.8954 42.61 7.88776 42.61 7.84958V7.68922C42.61 6.49794 42.61 6.28413 42.5947 6.03976C42.5795 5.78013 42.5184 5.65794 42.2664 5.60449C42.2053 5.58922 42.0755 5.58158 42.0067 5.58158C41.9762 5.58158 41.9456 5.56631 41.9456 5.53576C41.9456 5.48994 41.9838 5.47467 42.0678 5.47467C42.4115 5.47467 42.8926 5.49758 42.9307 5.49758C42.9689 5.49758 43.45 5.47467 43.6791 5.47467C43.7631 5.47467 43.8013 5.48994 43.8013 5.53576C43.8013 5.56631 43.7707 5.58158 43.7402 5.58158C43.6867 5.58158 43.6409 5.58922 43.5493 5.60449C43.3431 5.64267 43.282 5.77249 43.2667 6.03976C43.2515 6.28413 43.2515 6.49794 43.2515 7.68922ZM45.9697 9.03322V7.68922C45.9697 6.49794 45.9697 6.28413 45.9544 6.03976C45.9392 5.78013 45.8781 5.65794 45.6261 5.60449C45.565 5.58922 45.4352 5.58158 45.3664 5.58158C45.3359 5.58158 45.3053 5.56631 45.3053 5.53576C45.3053 5.48994 45.3435 5.47467 45.4275 5.47467C45.6032 5.47467 45.8093 5.47467 45.9773 5.48231L46.2904 5.49758C46.3439 5.49758 47.8635 5.49758 48.0392 5.48994C48.1843 5.48231 48.3064 5.46704 48.3675 5.45176C48.4057 5.44413 48.4363 5.41358 48.4744 5.41358C48.4973 5.41358 48.505 5.44413 48.505 5.48231C48.505 5.53576 48.4668 5.6274 48.4439 5.84122C48.4363 5.91758 48.421 6.25358 48.4057 6.34522C48.3981 6.3834 48.3828 6.42922 48.3523 6.42922C48.3064 6.42922 48.2912 6.39104 48.2912 6.32994C48.2912 6.27649 48.2835 6.14667 48.2453 6.05504C48.1919 5.93285 48.1155 5.84122 47.7032 5.7954C47.5733 5.78013 46.741 5.77249 46.657 5.77249C46.6264 5.77249 46.6112 5.7954 46.6112 5.84885V7.95649C46.6112 8.00994 46.6188 8.03285 46.657 8.03285C46.7563 8.03285 47.6955 8.03285 47.8712 8.01758C48.0544 8.00231 48.1613 7.98704 48.2301 7.91067C48.2835 7.84958 48.3141 7.8114 48.3446 7.8114C48.3675 7.8114 48.3828 7.82667 48.3828 7.87249C48.3828 7.91831 48.3446 8.04813 48.3217 8.30013C48.3064 8.45285 48.2912 8.7354 48.2912 8.78885C48.2912 8.84994 48.2912 8.93394 48.2377 8.93394C48.1995 8.93394 48.1843 8.9034 48.1843 8.86522C48.1843 8.78885 48.1843 8.71249 48.1537 8.61322C48.1232 8.50631 48.0544 8.37649 47.7566 8.34594C47.5504 8.32304 46.7944 8.30776 46.6646 8.30776C46.6264 8.30776 46.6112 8.33067 46.6112 8.36122V9.03322C46.6112 9.29285 46.6035 10.1787 46.6112 10.339C46.6341 10.8659 46.7486 10.9652 47.497 10.9652C47.6955 10.9652 48.0315 10.9652 48.2301 10.8812C48.4286 10.7972 48.5203 10.6445 48.5737 10.3314C48.589 10.2474 48.6043 10.2169 48.6424 10.2169C48.6883 10.2169 48.6883 10.2779 48.6883 10.3314C48.6883 10.3925 48.6272 10.9118 48.589 11.0721C48.5355 11.2707 48.4744 11.2707 48.1766 11.2707C47.6039 11.2707 47.1839 11.2554 46.8861 11.2478C46.5883 11.2325 46.405 11.2249 46.2904 11.2249C46.2752 11.2249 46.1453 11.2249 45.985 11.2325C45.8323 11.2325 45.6566 11.2478 45.5421 11.2478C45.4581 11.2478 45.4199 11.2325 45.4199 11.1867C45.4199 11.1638 45.4352 11.1409 45.481 11.1409C45.5497 11.1409 45.6413 11.1256 45.7101 11.1103C45.8628 11.0798 45.901 10.9118 45.9315 10.6903C45.9697 10.3696 45.9697 9.76631 45.9697 9.03322ZM55.6873 11.3547C54.5419 11.3547 53.7706 11.0721 53.1673 10.5299C52.4266 9.86558 52.2433 8.99504 52.2433 8.26958C52.2433 7.75794 52.419 6.86449 53.0986 6.18485C53.5568 5.72667 54.2517 5.36776 55.4277 5.36776C55.7332 5.36776 56.1608 5.39067 56.535 5.4594C56.8252 5.51285 57.0695 5.55867 57.3139 5.57394C57.3979 5.58158 57.4132 5.61213 57.4132 5.65794C57.4132 5.71904 57.3903 5.81067 57.375 6.08558C57.3597 6.33758 57.3597 6.75758 57.3521 6.87213C57.3444 6.98667 57.3292 7.03249 57.2833 7.03249C57.2299 7.03249 57.2223 6.97903 57.2223 6.87213C57.2223 6.57431 57.1001 6.26122 56.9015 6.09322C56.6343 5.86413 56.0463 5.65794 55.3743 5.65794C54.3586 5.65794 53.8852 5.95576 53.6179 6.2154C53.0604 6.74994 52.9306 7.42958 52.9306 8.20849C52.9306 9.66704 54.0532 11.0034 55.6873 11.0034C56.2601 11.0034 56.7106 10.9347 57.0161 10.6216C57.1764 10.4536 57.2757 10.1176 57.2986 9.98013C57.3139 9.89613 57.3292 9.86558 57.375 9.86558C57.4132 9.86558 57.4284 9.91904 57.4284 9.98013C57.4284 10.0336 57.3368 10.6979 57.2604 10.9576C57.2146 11.1027 57.1993 11.1179 57.0619 11.179C56.7564 11.3012 56.1761 11.3547 55.6873 11.3547ZM59.9002 7.68922V9.03322C59.9002 9.76631 59.9002 10.3696 59.9384 10.6903C59.9613 10.9118 60.0071 11.0798 60.2362 11.1103C60.3431 11.1256 60.5111 11.1409 60.5799 11.1409C60.6257 11.1409 60.641 11.1638 60.641 11.1867C60.641 11.2249 60.6028 11.2478 60.5188 11.2478C60.0988 11.2478 59.6177 11.2249 59.5795 11.2249C59.5413 11.2249 59.0602 11.2478 58.8311 11.2478C58.7471 11.2478 58.709 11.2325 58.709 11.1867C58.709 11.1638 58.7242 11.1409 58.77 11.1409C58.8388 11.1409 58.9304 11.1256 58.9991 11.1103C59.1519 11.0798 59.19 10.9118 59.2206 10.6903C59.2588 10.3696 59.2588 9.76631 59.2588 9.03322V7.68922C59.2588 6.49794 59.2588 6.28413 59.2435 6.03976C59.2282 5.78013 59.1519 5.65031 58.9839 5.61213C58.8999 5.58922 58.8006 5.58158 58.7471 5.58158C58.7166 5.58158 58.686 5.56631 58.686 5.53576C58.686 5.48994 58.7242 5.47467 58.8082 5.47467C59.0602 5.47467 59.5413 5.49758 59.5795 5.49758C59.6177 5.49758 60.0988 5.47467 60.3279 5.47467C60.4119 5.47467 60.45 5.48994 60.45 5.53576C60.45 5.56631 60.4195 5.58158 60.389 5.58158C60.3355 5.58158 60.2897 5.58922 60.198 5.60449C59.9919 5.64267 59.9308 5.77249 59.9155 6.03976C59.9002 6.28413 59.9002 6.49794 59.9002 7.68922ZM62.813 6.40631L64.2791 10.3161C64.7221 9.29285 65.7453 6.62776 65.9133 6.07794C65.9515 5.9634 65.9821 5.85649 65.9821 5.78776C65.9821 5.72667 65.9591 5.65031 65.8828 5.61213C65.7911 5.58158 65.6766 5.58158 65.5926 5.58158C65.5468 5.58158 65.5086 5.57394 65.5086 5.53576C65.5086 5.48994 65.5544 5.47467 65.6766 5.47467C65.9821 5.47467 66.3333 5.49758 66.425 5.49758C66.4708 5.49758 66.7991 5.47467 67.0206 5.47467C67.1046 5.47467 67.1504 5.48994 67.1504 5.52813C67.1504 5.56631 67.1199 5.58158 67.0588 5.58158C67.0053 5.58158 66.8373 5.58158 66.6922 5.67322C66.593 5.74194 66.4784 5.87176 66.2722 6.39104C66.1882 6.60485 65.8064 7.52122 65.417 8.46049C64.9511 9.5754 64.6075 10.4001 64.4319 10.7743C64.2181 11.2325 64.1875 11.3547 64.1111 11.3547C64.0195 11.3547 63.9813 11.2478 63.8362 10.8812L61.9653 6.20013C61.7973 5.77249 61.6828 5.68849 61.4155 5.61213C61.301 5.58158 61.1711 5.58158 61.1253 5.58158C61.0795 5.58158 61.0642 5.55867 61.0642 5.52813C61.0642 5.48231 61.1406 5.47467 61.2628 5.47467C61.6293 5.47467 62.0646 5.49758 62.1562 5.49758C62.2326 5.49758 62.5762 5.47467 62.8664 5.47467C63.0039 5.47467 63.0726 5.48994 63.0726 5.52813C63.0726 5.56631 63.0497 5.58158 62.9962 5.58158C62.9122 5.58158 62.7748 5.58922 62.7061 5.61976C62.6221 5.65794 62.6068 5.71904 62.6068 5.77249C62.6068 5.87176 62.6984 6.10849 62.813 6.40631ZM68.9311 7.68922V9.03322C68.9311 9.76631 68.9311 10.3696 68.9693 10.6903C68.9922 10.9118 69.038 11.0798 69.2671 11.1103C69.374 11.1256 69.542 11.1409 69.6108 11.1409C69.6566 11.1409 69.6719 11.1638 69.6719 11.1867C69.6719 11.2249 69.6337 11.2478 69.5497 11.2478C69.1297 11.2478 68.6486 11.2249 68.6104 11.2249C68.5722 11.2249 68.0911 11.2478 67.862 11.2478C67.778 11.2478 67.7399 11.2325 67.7399 11.1867C67.7399 11.1638 67.7551 11.1409 67.8009 11.1409C67.8697 11.1409 67.9613 11.1256 68.03 11.1103C68.1828 11.0798 68.2209 10.9118 68.2515 10.6903C68.2897 10.3696 68.2897 9.76631 68.2897 9.03322V7.68922C68.2897 6.49794 68.2897 6.28413 68.2744 6.03976C68.2591 5.78013 68.1828 5.65031 68.0148 5.61213C67.9308 5.58922 67.8315 5.58158 67.778 5.58158C67.7475 5.58158 67.7169 5.56631 67.7169 5.53576C67.7169 5.48994 67.7551 5.47467 67.8391 5.47467C68.0911 5.47467 68.5722 5.49758 68.6104 5.49758C68.6486 5.49758 69.1297 5.47467 69.3588 5.47467C69.4428 5.47467 69.4809 5.48994 69.4809 5.53576C69.4809 5.56631 69.4504 5.58158 69.4199 5.58158C69.3664 5.58158 69.3206 5.58922 69.2289 5.60449C69.0228 5.64267 68.9617 5.77249 68.9464 6.03976C68.9311 6.28413 68.9311 6.49794 68.9311 7.68922ZM74.1145 11.3547C72.9691 11.3547 72.1978 11.0721 71.5945 10.5299C70.8538 9.86558 70.6705 8.99504 70.6705 8.26958C70.6705 7.75794 70.8462 6.86449 71.5258 6.18485C71.984 5.72667 72.6789 5.36776 73.8549 5.36776C74.1604 5.36776 74.588 5.39067 74.9622 5.4594C75.2524 5.51285 75.4967 5.55867 75.7411 5.57394C75.8251 5.58158 75.8404 5.61213 75.8404 5.65794C75.8404 5.71904 75.8175 5.81067 75.8022 6.08558C75.7869 6.33758 75.7869 6.75758 75.7793 6.87213C75.7716 6.98667 75.7564 7.03249 75.7105 7.03249C75.6571 7.03249 75.6495 6.97903 75.6495 6.87213C75.6495 6.57431 75.5273 6.26122 75.3287 6.09322C75.0615 5.86413 74.4735 5.65794 73.8015 5.65794C72.7858 5.65794 72.3124 5.95576 72.0451 6.2154C71.4876 6.74994 71.3578 7.42958 71.3578 8.20849C71.3578 9.66704 72.4804 11.0034 74.1145 11.0034C74.6873 11.0034 75.1378 10.9347 75.4433 10.6216C75.6036 10.4536 75.7029 10.1176 75.7258 9.98013C75.7411 9.89613 75.7564 9.86558 75.8022 9.86558C75.8404 9.86558 75.8556 9.91904 75.8556 9.98013C75.8556 10.0336 75.764 10.6979 75.6876 10.9576C75.6418 11.1027 75.6265 11.1179 75.4891 11.179C75.1836 11.3012 74.6033 11.3547 74.1145 11.3547ZM80.1693 9.03322V7.68922C80.1693 6.49794 80.1693 6.28413 80.154 6.03976C80.1387 5.78013 80.0776 5.65794 79.8256 5.60449C79.7646 5.58922 79.6347 5.58158 79.566 5.58158C79.5355 5.58158 79.5049 5.56631 79.5049 5.53576C79.5049 5.48994 79.5431 5.47467 79.6271 5.47467C79.9707 5.47467 80.4289 5.49758 80.49 5.49758C80.658 5.49758 81.1009 5.47467 81.4522 5.47467C82.4067 5.47467 82.7504 5.7954 82.8726 5.90994C83.0406 6.07031 83.2544 6.41394 83.2544 6.81867C83.2544 7.90304 82.4602 8.63613 81.3758 8.63613C81.3376 8.63613 81.2536 8.63613 81.2155 8.62849C81.1773 8.62849 81.1315 8.61322 81.1315 8.57504C81.1315 8.51394 81.1773 8.50631 81.3376 8.50631C82.0784 8.50631 82.6587 7.96413 82.6587 7.26158C82.6587 7.00958 82.6358 6.49794 82.2311 6.08558C81.8264 5.67322 81.3606 5.70376 81.1849 5.70376C81.0551 5.70376 80.9253 5.71904 80.8566 5.74958C80.8107 5.76485 80.7955 5.81831 80.7955 5.89467V9.03322C80.7955 9.76631 80.7955 10.3696 80.8336 10.6903C80.8566 10.9118 80.9024 11.0798 81.1315 11.1103C81.2384 11.1256 81.4064 11.1409 81.4751 11.1409C81.5209 11.1409 81.5362 11.1638 81.5362 11.1867C81.5362 11.2249 81.498 11.2478 81.414 11.2478C80.994 11.2478 80.5129 11.2249 80.4747 11.2249C80.4518 11.2249 79.9707 11.2478 79.7416 11.2478C79.6576 11.2478 79.6195 11.2325 79.6195 11.1867C79.6195 11.1638 79.6347 11.1409 79.6806 11.1409C79.7493 11.1409 79.8409 11.1256 79.9096 11.1103C80.0624 11.0798 80.1006 10.9118 80.1311 10.6903C80.1693 10.3696 80.1693 9.76631 80.1693 9.03322ZM84.1982 8.35358C84.1982 7.11649 85.0993 5.36776 87.207 5.36776C88.9252 5.36776 90.2081 6.45213 90.2081 8.2314C90.2081 9.94194 89.0015 11.3547 87.1612 11.3547C85.0688 11.3547 84.1982 9.72813 84.1982 8.35358ZM84.9237 8.13976C84.9237 9.91904 85.9928 11.0645 87.3673 11.0645C88.0546 11.0645 89.475 10.6674 89.475 8.44522C89.475 6.61249 88.3601 5.6274 87.1535 5.6274C85.8782 5.6274 84.9237 6.4674 84.9237 8.13976ZM92.4666 7.68922V9.04849C92.4666 10.171 92.4972 10.6598 92.6346 10.7972C92.7568 10.9194 92.9554 10.9729 93.551 10.9729C93.9557 10.9729 94.2917 10.9652 94.475 10.7438C94.5743 10.6216 94.6506 10.4307 94.6735 10.2856C94.6812 10.2245 94.6965 10.1863 94.7423 10.1863C94.7805 10.1863 94.7881 10.2169 94.7881 10.3009C94.7881 10.3849 94.7346 10.843 94.6735 11.0645C94.6201 11.2401 94.5972 11.2707 94.1925 11.2707C93.6426 11.2707 93.2455 11.2554 92.9248 11.2478C92.6041 11.2325 92.3674 11.2249 92.1459 11.2249C92.1154 11.2249 91.9855 11.2325 91.8328 11.2325C91.6801 11.2401 91.5121 11.2478 91.3975 11.2478C91.3135 11.2478 91.2754 11.2325 91.2754 11.1867C91.2754 11.1638 91.2906 11.1409 91.3365 11.1409C91.4052 11.1409 91.4968 11.1256 91.5655 11.1103C91.7183 11.0798 91.7565 10.9118 91.787 10.6903C91.8252 10.3696 91.8252 9.76631 91.8252 9.03322V7.68922C91.8252 6.49794 91.8252 6.28413 91.8099 6.03976C91.7946 5.78013 91.7335 5.65794 91.4815 5.60449C91.4205 5.58922 91.2906 5.58158 91.2219 5.58158C91.1914 5.58158 91.1608 5.56631 91.1608 5.53576C91.1608 5.48994 91.199 5.47467 91.283 5.47467C91.6266 5.47467 92.1077 5.49758 92.1459 5.49758C92.1841 5.49758 92.7415 5.47467 92.9706 5.47467C93.0546 5.47467 93.0928 5.48994 93.0928 5.53576C93.0928 5.56631 93.0623 5.58158 93.0317 5.58158C92.9783 5.58158 92.8714 5.58922 92.7797 5.60449C92.5583 5.64267 92.4972 5.77249 92.4819 6.03976C92.4666 6.28413 92.4666 6.49794 92.4666 7.68922ZM96.9858 7.68922V9.03322C96.9858 9.76631 96.9858 10.3696 97.024 10.6903C97.0469 10.9118 97.0927 11.0798 97.3218 11.1103C97.4287 11.1256 97.5967 11.1409 97.6654 11.1409C97.7113 11.1409 97.7265 11.1638 97.7265 11.1867C97.7265 11.2249 97.6884 11.2478 97.6044 11.2478C97.1844 11.2478 96.7033 11.2249 96.6651 11.2249C96.6269 11.2249 96.1458 11.2478 95.9167 11.2478C95.8327 11.2478 95.7945 11.2325 95.7945 11.1867C95.7945 11.1638 95.8098 11.1409 95.8556 11.1409C95.9244 11.1409 96.016 11.1256 96.0847 11.1103C96.2374 11.0798 96.2756 10.9118 96.3062 10.6903C96.3444 10.3696 96.3444 9.76631 96.3444 9.03322V7.68922C96.3444 6.49794 96.3444 6.28413 96.3291 6.03976C96.3138 5.78013 96.2374 5.65031 96.0694 5.61213C95.9854 5.58922 95.8862 5.58158 95.8327 5.58158C95.8022 5.58158 95.7716 5.56631 95.7716 5.53576C95.7716 5.48994 95.8098 5.47467 95.8938 5.47467C96.1458 5.47467 96.6269 5.49758 96.6651 5.49758C96.7033 5.49758 97.1844 5.47467 97.4134 5.47467C97.4974 5.47467 97.5356 5.48994 97.5356 5.53576C97.5356 5.56631 97.5051 5.58158 97.4745 5.58158C97.4211 5.58158 97.3753 5.58922 97.2836 5.60449C97.0774 5.64267 97.0164 5.77249 97.0011 6.03976C96.9858 6.28413 96.9858 6.49794 96.9858 7.68922ZM102.169 11.3547C101.024 11.3547 100.253 11.0721 99.6492 10.5299C98.9085 9.86558 98.7252 8.99504 98.7252 8.26958C98.7252 7.75794 98.9009 6.86449 99.5805 6.18485C100.039 5.72667 100.734 5.36776 101.91 5.36776C102.215 5.36776 102.643 5.39067 103.017 5.4594C103.307 5.51285 103.551 5.55867 103.796 5.57394C103.88 5.58158 103.895 5.61213 103.895 5.65794C103.895 5.71904 103.872 5.81067 103.857 6.08558C103.842 6.33758 103.842 6.75758 103.834 6.87213C103.826 6.98667 103.811 7.03249 103.765 7.03249C103.712 7.03249 103.704 6.97903 103.704 6.87213C103.704 6.57431 103.582 6.26122 103.383 6.09322C103.116 5.86413 102.528 5.65794 101.856 5.65794C100.841 5.65794 100.367 5.95576 100.1 6.2154C99.5423 6.74994 99.4125 7.42958 99.4125 8.20849C99.4125 9.66704 100.535 11.0034 102.169 11.0034C102.742 11.0034 103.193 10.9347 103.498 10.6216C103.658 10.4536 103.758 10.1176 103.781 9.98013C103.796 9.89613 103.811 9.86558 103.857 9.86558C103.895 9.86558 103.91 9.91904 103.91 9.98013C103.91 10.0336 103.819 10.6979 103.742 10.9576C103.697 11.1027 103.681 11.1179 103.544 11.179C103.238 11.3012 102.658 11.3547 102.169 11.3547ZM106.7 9.92667V9.26994C106.7 8.85758 106.624 8.68958 106.525 8.46813C106.471 8.34594 105.448 6.66594 105.181 6.26885C104.99 5.98631 104.799 5.7954 104.661 5.70376C104.547 5.6274 104.402 5.58158 104.333 5.58158C104.295 5.58158 104.257 5.56631 104.257 5.52813C104.257 5.49758 104.287 5.47467 104.356 5.47467C104.501 5.47467 105.074 5.49758 105.112 5.49758C105.165 5.49758 105.455 5.47467 105.753 5.47467C105.837 5.47467 105.853 5.49758 105.853 5.52813C105.853 5.55867 105.807 5.56631 105.738 5.59685C105.677 5.6274 105.639 5.67322 105.639 5.73431C105.639 5.82594 105.677 5.91758 105.738 6.03213C105.86 6.25358 107.006 8.22376 107.143 8.44522C107.288 8.12449 108.258 6.45213 108.411 6.20013C108.51 6.03976 108.541 5.90994 108.541 5.81067C108.541 5.70376 108.51 5.61976 108.418 5.59685C108.35 5.57394 108.304 5.55867 108.304 5.52049C108.304 5.48994 108.35 5.47467 108.426 5.47467C108.625 5.47467 108.869 5.49758 108.93 5.49758C108.976 5.49758 109.526 5.47467 109.671 5.47467C109.724 5.47467 109.77 5.48994 109.77 5.52049C109.77 5.55867 109.732 5.58158 109.671 5.58158C109.587 5.58158 109.442 5.61213 109.319 5.68849C109.167 5.78013 109.083 5.87176 108.915 6.07794C108.663 6.3834 107.594 8.17794 107.456 8.50631C107.342 8.78122 107.342 9.01794 107.342 9.26994V9.92667C107.342 10.0489 107.342 10.3696 107.365 10.6903C107.38 10.9118 107.449 11.0798 107.678 11.1103C107.785 11.1256 107.953 11.1409 108.021 11.1409C108.067 11.1409 108.082 11.1638 108.082 11.1867C108.082 11.2249 108.044 11.2478 107.96 11.2478C107.54 11.2478 107.059 11.2249 107.021 11.2249C106.983 11.2249 106.502 11.2478 106.273 11.2478C106.189 11.2478 106.15 11.2325 106.15 11.1867C106.15 11.1638 106.166 11.1409 106.211 11.1409C106.28 11.1409 106.372 11.1256 106.441 11.1103C106.593 11.0798 106.662 10.9118 106.677 10.6903C106.7 10.3696 106.7 10.0489 106.7 9.92667Z" fill="black"/>
<path d="M33.4509 26.17L36.9178 16.6857C37.1011 16.1817 37.1622 16.09 37.2538 16.09C37.3455 16.09 37.4065 16.1664 37.5898 16.6398C37.8189 17.2202 40.2167 23.5278 41.1484 25.8493C41.6982 27.2086 42.1411 27.4529 42.4618 27.5446C42.6909 27.6209 42.92 27.6362 43.0727 27.6362C43.1644 27.6362 43.2255 27.6515 43.2255 27.7278C43.2255 27.8195 43.088 27.85 42.92 27.85C42.6909 27.85 41.576 27.85 40.5222 27.8195C40.232 27.8042 40.064 27.8042 40.064 27.7126C40.064 27.6515 40.1098 27.6209 40.1709 27.6057C40.2625 27.5751 40.3542 27.4377 40.2625 27.1933L38.8422 23.4362C38.8116 23.3751 38.7811 23.3446 38.7047 23.3446H35.4211C35.3447 23.3446 35.2989 23.3904 35.2684 23.4667L34.352 26.17C34.2145 26.5518 34.1382 26.9184 34.1382 27.1933C34.1382 27.4987 34.4589 27.6362 34.7185 27.6362H34.8713C34.9782 27.6362 35.024 27.6667 35.024 27.7278C35.024 27.8195 34.9324 27.85 34.7949 27.85C34.4284 27.85 33.7716 27.8042 33.6036 27.8042C33.4356 27.8042 32.5956 27.85 31.8778 27.85C31.6793 27.85 31.5876 27.8195 31.5876 27.7278C31.5876 27.6667 31.6487 27.6362 31.7251 27.6362C31.832 27.6362 32.0458 27.6209 32.168 27.6057C32.8705 27.514 33.176 26.9337 33.4509 26.17ZM35.5891 22.7947H38.5062C38.5825 22.7947 38.5825 22.7489 38.5673 22.6878L37.1164 18.5642C37.04 18.3351 36.9636 18.3351 36.8873 18.5642L35.5433 22.6878C35.5127 22.7642 35.5433 22.7947 35.5891 22.7947ZM45.4124 23.4209V20.7329C45.4124 18.3504 45.4124 17.9227 45.3819 17.434C45.3513 16.9147 45.2292 16.6704 44.7252 16.5635C44.603 16.5329 44.3433 16.5177 44.2059 16.5177C44.1448 16.5177 44.0837 16.4871 44.0837 16.426C44.0837 16.3344 44.1601 16.3038 44.3281 16.3038C45.0153 16.3038 45.9775 16.3497 46.0539 16.3497C46.2219 16.3497 47.3826 16.3038 47.8561 16.3038C48.8183 16.3038 49.8415 16.3955 50.651 16.9758C51.0328 17.2507 51.7048 17.9991 51.7048 19.0529C51.7048 20.1831 51.2313 21.3133 49.8568 22.5809C51.1092 24.1846 52.1477 25.5438 53.0335 26.4907C53.8583 27.3613 54.515 27.5293 54.8968 27.5904C55.187 27.6362 55.4008 27.6362 55.4924 27.6362C55.5688 27.6362 55.6299 27.682 55.6299 27.7278C55.6299 27.8195 55.5383 27.85 55.2633 27.85H54.179C53.3237 27.85 52.9419 27.7737 52.5448 27.5598C51.8881 27.2086 51.3535 26.4602 50.483 25.3147C49.8415 24.4747 49.1237 23.4515 48.8183 23.0544C48.7572 22.9933 48.7113 22.9627 48.6197 22.9627L46.7412 22.9322C46.6648 22.9322 46.6343 22.978 46.6343 23.0544V23.4209C46.6343 24.8871 46.6343 26.0937 46.7106 26.7351C46.7564 27.178 46.8481 27.514 47.3063 27.5751C47.5201 27.6057 47.8561 27.6362 47.9935 27.6362C48.0852 27.6362 48.1157 27.682 48.1157 27.7278C48.1157 27.8042 48.0393 27.85 47.8713 27.85C47.0313 27.85 46.0692 27.8042 45.9928 27.8042C45.9775 27.8042 45.0153 27.85 44.5572 27.85C44.3892 27.85 44.3128 27.8195 44.3128 27.7278C44.3128 27.682 44.3433 27.6362 44.435 27.6362C44.5724 27.6362 44.7557 27.6057 44.8932 27.5751C45.1986 27.514 45.275 27.178 45.3361 26.7351C45.4124 26.0937 45.4124 24.8871 45.4124 23.4209ZM46.6343 17.0675V22.0617C46.6343 22.138 46.6648 22.1991 46.7412 22.2449C46.9703 22.3824 47.6728 22.4893 48.3448 22.4893C48.7113 22.4893 49.139 22.4435 49.4903 22.1991C50.0248 21.8326 50.4219 21.0078 50.4219 19.8471C50.4219 17.938 49.4139 16.7926 47.7797 16.7926C47.3215 16.7926 46.9092 16.8384 46.7564 16.8842C46.6801 16.9147 46.6343 16.9758 46.6343 17.0675ZM62.2973 28.0638C60.0064 28.0638 58.4638 27.4987 57.2573 26.4144C55.7758 25.0857 55.4093 23.3446 55.4093 21.8937C55.4093 20.8704 55.7605 19.0835 57.1198 17.7242C58.0362 16.8078 59.426 16.09 61.778 16.09C62.3889 16.09 63.2442 16.1358 63.9925 16.2733C64.5729 16.3802 65.0616 16.4718 65.5504 16.5024C65.7184 16.5177 65.7489 16.5787 65.7489 16.6704C65.7489 16.7926 65.7031 16.9758 65.6725 17.5257C65.642 18.0297 65.642 18.8697 65.6267 19.0987C65.6115 19.3278 65.5809 19.4195 65.4893 19.4195C65.3824 19.4195 65.3671 19.3126 65.3671 19.0987C65.3671 18.5031 65.1227 17.8769 64.7256 17.5409C64.1911 17.0827 63.0151 16.6704 61.6711 16.6704C59.6398 16.6704 58.6929 17.266 58.1584 17.7853C57.0435 18.8544 56.7838 20.2137 56.7838 21.7715C56.7838 24.6886 59.0289 27.3613 62.2973 27.3613C63.4427 27.3613 64.3438 27.2238 64.9547 26.5977C65.2755 26.2617 65.474 25.5897 65.5198 25.3147C65.5504 25.1467 65.5809 25.0857 65.6725 25.0857C65.7489 25.0857 65.7795 25.1926 65.7795 25.3147C65.7795 25.4217 65.5962 26.7504 65.4435 27.2697C65.3518 27.5598 65.3213 27.5904 65.0464 27.7126C64.4355 27.9569 63.2747 28.0638 62.2973 28.0638ZM78.6649 20.7329V23.4209C78.6649 24.8871 78.6649 26.0937 78.7412 26.7351C78.787 27.178 78.8787 27.514 79.3369 27.5751C79.5507 27.6057 79.8867 27.6362 80.0241 27.6362C80.1158 27.6362 80.1463 27.682 80.1463 27.7278C80.1463 27.8042 80.07 27.85 79.902 27.85C79.062 27.85 78.0998 27.8042 78.0234 27.8042C77.947 27.8042 76.9849 27.85 76.5267 27.85C76.3587 27.85 76.2823 27.8195 76.2823 27.7278C76.2823 27.682 76.3129 27.6362 76.4045 27.6362C76.542 27.6362 76.7252 27.6057 76.8627 27.5751C77.1681 27.514 77.2445 27.178 77.3056 26.7351C77.382 26.0937 77.382 24.8871 77.382 23.4209V21.8173C77.382 21.7562 77.3361 21.7257 77.2903 21.7257H70.8147C70.7689 21.7257 70.723 21.7409 70.723 21.8173V23.4209C70.723 24.8871 70.723 26.0937 70.7994 26.7351C70.8452 27.178 70.9369 27.514 71.395 27.5751C71.6089 27.6057 71.9449 27.6362 72.0823 27.6362C72.174 27.6362 72.2045 27.682 72.2045 27.7278C72.2045 27.8042 72.1281 27.85 71.9601 27.85C71.1201 27.85 70.158 27.8042 70.0816 27.8042C70.0052 27.8042 69.043 27.85 68.5849 27.85C68.4169 27.85 68.3405 27.8195 68.3405 27.7278C68.3405 27.682 68.371 27.6362 68.4627 27.6362C68.6001 27.6362 68.7834 27.6057 68.9209 27.5751C69.2263 27.514 69.3027 27.178 69.3638 26.7351C69.4401 26.0937 69.4401 24.8871 69.4401 23.4209V20.7329C69.4401 18.3504 69.4401 17.9227 69.4096 17.434C69.379 16.9147 69.2569 16.6704 68.7529 16.5635C68.6307 16.5329 68.371 16.5177 68.2336 16.5177C68.1725 16.5177 68.1114 16.4871 68.1114 16.426C68.1114 16.3344 68.1878 16.3038 68.3558 16.3038C69.043 16.3038 70.0052 16.3497 70.0816 16.3497C70.158 16.3497 71.1201 16.3038 71.5783 16.3038C71.7463 16.3038 71.8227 16.3344 71.8227 16.426C71.8227 16.4871 71.7616 16.5177 71.7005 16.5177C71.5936 16.5177 71.502 16.5329 71.3187 16.5635C70.9063 16.6398 70.7841 16.8995 70.7536 17.434C70.723 17.9227 70.723 18.3504 70.723 20.7329V21.0537C70.723 21.13 70.7689 21.1453 70.8147 21.1453H77.2903C77.3361 21.1453 77.382 21.13 77.382 21.0537V20.7329C77.382 18.3504 77.382 17.9227 77.3514 17.434C77.3209 16.9147 77.1987 16.6704 76.6947 16.5635C76.5725 16.5329 76.3129 16.5177 76.1754 16.5177C76.1143 16.5177 76.0532 16.4871 76.0532 16.426C76.0532 16.3344 76.1296 16.3038 76.2976 16.3038C76.9849 16.3038 77.947 16.3497 78.0234 16.3497C78.0998 16.3497 79.062 16.3038 79.5201 16.3038C79.6881 16.3038 79.7645 16.3344 79.7645 16.426C79.7645 16.4871 79.7034 16.5177 79.6423 16.5177C79.5354 16.5177 79.4438 16.5329 79.2605 16.5635C78.8481 16.6398 78.726 16.8995 78.6954 17.434C78.6649 17.9227 78.6649 18.3504 78.6649 20.7329ZM85.3843 20.7329V23.4209C85.3843 24.8871 85.3843 26.0937 85.4606 26.7351C85.5064 27.178 85.5981 27.514 86.0563 27.5751C86.2701 27.6057 86.6061 27.6362 86.7435 27.6362C86.8352 27.6362 86.8657 27.682 86.8657 27.7278C86.8657 27.8042 86.7894 27.85 86.6214 27.85C85.7814 27.85 84.8192 27.8042 84.7428 27.8042C84.6664 27.8042 83.7043 27.85 83.2461 27.85C83.0781 27.85 83.0017 27.8195 83.0017 27.7278C83.0017 27.682 83.0323 27.6362 83.1239 27.6362C83.2614 27.6362 83.4446 27.6057 83.5821 27.5751C83.8875 27.514 83.9639 27.178 84.025 26.7351C84.1014 26.0937 84.1014 24.8871 84.1014 23.4209V20.7329C84.1014 18.3504 84.1014 17.9227 84.0708 17.434C84.0403 16.9147 83.8875 16.6551 83.5515 16.5787C83.3835 16.5329 83.185 16.5177 83.0781 16.5177C83.017 16.5177 82.9559 16.4871 82.9559 16.426C82.9559 16.3344 83.0323 16.3038 83.2003 16.3038C83.7043 16.3038 84.6664 16.3497 84.7428 16.3497C84.8192 16.3497 85.7814 16.3038 86.2395 16.3038C86.4075 16.3038 86.4839 16.3344 86.4839 16.426C86.4839 16.4871 86.4228 16.5177 86.3617 16.5177C86.2548 16.5177 86.1632 16.5329 85.9799 16.5635C85.5675 16.6398 85.4454 16.8995 85.4148 17.434C85.3843 17.9227 85.3843 18.3504 85.3843 20.7329ZM91.2097 18.1671L94.1421 25.9867C95.0279 23.9402 97.0745 18.61 97.4105 17.5104C97.4868 17.2813 97.5479 17.0675 97.5479 16.93C97.5479 16.8078 97.5021 16.6551 97.3494 16.5787C97.1661 16.5177 96.937 16.5177 96.769 16.5177C96.6774 16.5177 96.601 16.5024 96.601 16.426C96.601 16.3344 96.6926 16.3038 96.937 16.3038C97.5479 16.3038 98.2505 16.3497 98.4337 16.3497C98.5254 16.3497 99.1821 16.3038 99.625 16.3038C99.793 16.3038 99.8846 16.3344 99.8846 16.4107C99.8846 16.4871 99.8236 16.5177 99.7014 16.5177C99.5945 16.5177 99.2585 16.5177 98.9683 16.7009C98.7697 16.8384 98.5406 17.098 98.1283 18.1366C97.9603 18.5642 97.1966 20.3969 96.4177 22.2755C95.4861 24.5053 94.7988 26.1547 94.4476 26.9031C94.0199 27.8195 93.9588 28.0638 93.8061 28.0638C93.6228 28.0638 93.5465 27.85 93.2563 27.1169L89.5145 17.7547C89.1785 16.8995 88.9494 16.7315 88.4148 16.5787C88.1857 16.5177 87.9261 16.5177 87.8345 16.5177C87.7428 16.5177 87.7123 16.4718 87.7123 16.4107C87.7123 16.3191 87.865 16.3038 88.1094 16.3038C88.8425 16.3038 89.713 16.3497 89.8963 16.3497C90.049 16.3497 90.7363 16.3038 91.3166 16.3038C91.5916 16.3038 91.729 16.3344 91.729 16.4107C91.729 16.4871 91.6832 16.5177 91.5763 16.5177C91.4083 16.5177 91.1334 16.5329 90.9959 16.594C90.8279 16.6704 90.7974 16.7926 90.7974 16.8995C90.7974 17.098 90.9806 17.5715 91.2097 18.1671ZM102.163 23.4209V20.7329C102.163 18.3504 102.163 17.9227 102.133 17.434C102.102 16.9147 101.98 16.6704 101.476 16.5635C101.354 16.5329 101.094 16.5177 100.957 16.5177C100.896 16.5177 100.834 16.4871 100.834 16.426C100.834 16.3344 100.911 16.3038 101.079 16.3038C101.43 16.3038 101.842 16.3038 102.178 16.3191L102.805 16.3497C102.912 16.3497 105.951 16.3497 106.302 16.3344C106.592 16.3191 106.837 16.2886 106.959 16.258C107.035 16.2427 107.096 16.1817 107.173 16.1817C107.218 16.1817 107.234 16.2427 107.234 16.3191C107.234 16.426 107.157 16.6093 107.112 17.0369C107.096 17.1897 107.066 17.8617 107.035 18.0449C107.02 18.1213 106.989 18.2129 106.928 18.2129C106.837 18.2129 106.806 18.1366 106.806 18.0144C106.806 17.9075 106.791 17.6478 106.714 17.4646C106.608 17.2202 106.455 17.0369 105.63 16.9453C105.37 16.9147 103.706 16.8995 103.538 16.8995C103.477 16.8995 103.446 16.9453 103.446 17.0522V21.2675C103.446 21.3744 103.461 21.4202 103.538 21.4202C103.736 21.4202 105.615 21.4202 105.966 21.3897C106.333 21.3591 106.546 21.3286 106.684 21.1758C106.791 21.0537 106.852 20.9773 106.913 20.9773C106.959 20.9773 106.989 21.0078 106.989 21.0995C106.989 21.1911 106.913 21.4507 106.867 21.9547C106.837 22.2602 106.806 22.8253 106.806 22.9322C106.806 23.0544 106.806 23.2224 106.699 23.2224C106.623 23.2224 106.592 23.1613 106.592 23.0849C106.592 22.9322 106.592 22.7795 106.531 22.5809C106.47 22.3671 106.333 22.1075 105.737 22.0464C105.325 22.0006 103.813 21.97 103.553 21.97C103.477 21.97 103.446 22.0158 103.446 22.0769V23.4209C103.446 23.9402 103.431 25.7118 103.446 26.0326C103.492 27.0864 103.721 27.2849 105.218 27.2849C105.615 27.2849 106.287 27.2849 106.684 27.1169C107.081 26.9489 107.264 26.6435 107.371 26.0173C107.402 25.8493 107.432 25.7882 107.509 25.7882C107.6 25.7882 107.6 25.9104 107.6 26.0173C107.6 26.1395 107.478 27.178 107.402 27.4987C107.295 27.8958 107.173 27.8958 106.577 27.8958C105.432 27.8958 104.592 27.8653 103.996 27.85C103.4 27.8195 103.034 27.8042 102.805 27.8042C102.774 27.8042 102.514 27.8042 102.194 27.8195C101.888 27.8195 101.537 27.85 101.308 27.85C101.14 27.85 101.064 27.8195 101.064 27.7278C101.064 27.682 101.094 27.6362 101.186 27.6362C101.323 27.6362 101.506 27.6057 101.644 27.5751C101.949 27.514 102.026 27.178 102.087 26.7351C102.163 26.0937 102.163 24.8871 102.163 23.4209Z" fill="black"/>
</svg>
