<svg width="391" height="115" viewBox="0 0 391 115" fill="none" xmlns="http://www.w3.org/2000/svg">
<path d="M3.87097 106V102.226C6.70968 102.097 8.83871 101.839 10.2581 101.452C11.6774 101 12.6129 100.226 13.0645 99.129C13.5161 97.9677 13.7419 96.2258 13.7419 93.9032V49.5806C13.7419 47.2581 13.4839 45.5484 12.9677 44.4516C12.5161 43.2903 11.5806 42.4839 10.1613 42.0323C8.80645 41.5806 6.70968 41.3226 3.87097 41.2581V37.4839C4.70968 37.5484 5.83871 37.6129 7.25806 37.6774C8.74194 37.6774 10.5806 37.6774 12.7742 37.6774C14.9677 37.6774 17.6452 37.6774 20.8065 37.6774C25.1935 37.6774 28.7742 37.6774 31.5484 37.6774C34.3871 37.6129 36.5484 37.5806 38.0323 37.5806C47.4516 37.5806 54.5806 39.2903 59.4194 42.7097C64.3226 46.0645 66.7742 51.0645 66.7742 57.7097C66.7742 62.2258 65.5806 66.0968 63.1935 69.3226C60.8065 72.5484 57.3548 75.0323 52.8387 76.7742C48.3226 78.4516 42.871 79.2903 36.4839 79.2903C35.0645 79.2903 33.6452 79.2581 32.2258 79.1935C30.871 79.0645 29.5806 78.9032 28.3548 78.7097C27.129 78.4516 26.0968 78.2258 25.2581 78.0323V74.2581C26.4839 74.6452 27.871 74.9677 29.4194 75.2258C31.0323 75.4194 32.7419 75.5161 34.5484 75.5161C39.7742 75.5161 43.5484 74.129 45.871 71.3548C48.2581 68.5806 49.4516 64.129 49.4516 58C49.4516 52.2581 48.4194 48.0323 46.3548 45.3226C44.2903 42.6129 41.0968 41.2581 36.7742 41.2581H30.3871V93.4194C30.3871 95.9355 30.6774 97.8065 31.2581 99.0323C31.9032 100.194 33.1613 101 35.0323 101.452C36.9677 101.903 39.8387 102.161 43.6452 102.226V106C42.3548 105.935 40.6129 105.903 38.4194 105.903C36.2903 105.839 33.871 105.806 31.1613 105.806C28.4516 105.742 25.5806 105.71 22.5484 105.71C18.6774 105.71 15.1935 105.742 12.0968 105.806C9 105.871 6.25806 105.935 3.87097 106ZM97.8107 107.355C92.843 107.355 88.4559 106.387 84.6494 104.452C80.843 102.516 77.843 99.6129 75.6494 95.7419C73.5204 91.8065 72.4559 86.9032 72.4559 81.0323C72.4559 75.0968 73.5204 70.1935 75.6494 66.3226C77.843 62.3871 80.843 59.4516 84.6494 57.5161C88.4559 55.5161 92.8753 54.5161 97.9075 54.5161C102.94 54.5161 107.327 55.4839 111.069 57.4194C114.875 59.3548 117.843 62.2903 119.972 66.2258C122.166 70.1613 123.262 75.0968 123.262 81.0323C123.262 86.9032 122.166 91.8065 119.972 95.7419C117.843 99.6129 114.875 102.516 111.069 104.452C107.327 106.387 102.908 107.355 97.8107 107.355ZM97.9075 103.581C100.682 103.581 102.972 101.806 104.778 98.2581C106.585 94.6452 107.488 88.9032 107.488 81.0323C107.488 72.9677 106.585 67.1613 104.778 63.6129C102.972 60.0645 100.682 58.2903 97.9075 58.2903C95.0688 58.2903 92.714 60.0645 90.843 63.6129C89.0365 67.1613 88.1333 72.9355 88.1333 80.9355C88.1333 88.871 89.0365 94.6452 90.843 98.2581C92.714 101.806 95.0688 103.581 97.9075 103.581ZM129.843 106V102.226C132.94 102.161 135.101 101.645 136.327 100.677C137.617 99.7097 138.262 97.9032 138.262 95.2581V43.6774C138.262 40.7742 137.649 38.6452 136.424 37.2903C135.262 35.9355 133.069 35.2258 129.843 35.1613V31.2903C131.133 31.3548 132.456 31.4194 133.811 31.4839C135.166 31.5484 136.488 31.5806 137.778 31.5806C140.682 31.5806 143.424 31.4839 146.004 31.2903C148.649 31.0323 151.069 30.6774 153.262 30.2258V95.2581C153.262 97.9677 153.908 99.8065 155.198 100.774C156.488 101.677 158.682 102.161 161.778 102.226V106C160.811 105.935 159.456 105.903 157.714 105.903C156.037 105.839 154.166 105.774 152.101 105.71C150.101 105.645 148.069 105.613 146.004 105.613C143.037 105.613 139.972 105.677 136.811 105.806C133.714 105.871 131.391 105.935 129.843 106ZM166.558 106V102.226C169.72 102.161 171.913 101.645 173.139 100.677C174.429 99.7097 175.074 97.9032 175.074 95.2581V68.1613C175.074 65.2581 174.461 63.1613 173.236 61.871C172.074 60.5161 169.849 59.7742 166.558 59.6452V55.871C167.913 55.9355 169.236 56 170.526 56.0645C171.881 56.129 173.236 56.1613 174.59 56.1613C177.558 56.1613 180.332 56.0645 182.913 55.871C185.494 55.6129 187.881 55.2581 190.074 54.8065V95.2581C190.074 97.9677 190.72 99.8065 192.01 100.774C193.3 101.677 195.494 102.161 198.59 102.226V106C197.623 105.935 196.268 105.903 194.526 105.903C192.849 105.839 190.978 105.774 188.913 105.71C186.913 105.645 184.881 105.613 182.816 105.613C179.784 105.613 176.72 105.677 173.623 105.806C170.526 105.871 168.171 105.935 166.558 106ZM182.139 46.5806C179.881 46.5806 177.849 45.871 176.042 44.4516C174.3 43.0323 173.429 41.0645 173.429 38.5484C173.429 35.9677 174.3 33.9677 176.042 32.5484C177.849 31.129 179.881 30.4194 182.139 30.4194C184.397 30.4194 186.429 31.129 188.236 32.5484C190.042 33.9677 190.945 35.9355 190.945 38.4516C190.945 41.0323 190.042 43.0323 188.236 44.4516C186.429 45.871 184.397 46.5806 182.139 46.5806ZM204.496 106V102.226C207.399 102.097 209.528 101.839 210.883 101.452C212.302 101.065 213.238 100.29 213.69 99.129C214.141 97.9677 214.367 96.2258 214.367 93.9032V49.5806C214.367 47.2581 214.141 45.5484 213.69 44.4516C213.238 43.2903 212.302 42.4839 210.883 42.0323C209.528 41.5806 207.399 41.3226 204.496 41.2581V37.4839C211.399 37.6774 222.496 37.7742 237.786 37.7742C240.819 37.7742 243.657 37.7742 246.302 37.7742C248.948 37.7097 251.431 37.6774 253.754 37.6774C256.077 37.6129 258.173 37.5484 260.044 37.4839C260.044 41.6129 260.173 45.5484 260.431 49.2903C260.754 52.9677 261.173 56.5161 261.69 59.9355H257.722C256.819 55.5484 255.625 52 254.141 49.2903C252.657 46.5806 250.819 44.6129 248.625 43.3871C246.496 42.1613 243.883 41.5484 240.786 41.5484H231.012V93.9032C231.012 96.1613 231.302 97.871 231.883 99.0323C232.464 100.194 233.625 101 235.367 101.452C237.109 101.839 239.754 102.097 243.302 102.226V106C241.173 105.935 238.399 105.871 234.98 105.806C231.625 105.742 227.657 105.71 223.077 105.71C219.593 105.71 216.27 105.742 213.109 105.806C209.948 105.871 207.077 105.935 204.496 106ZM227.915 74.0645V70.3871H246.206V74.0645H227.915ZM247.173 88.0968C246.851 84.871 246.206 82.2258 245.238 80.1613C244.335 78.0968 243.077 76.5806 241.464 75.6129C239.915 74.5806 237.98 74.0645 235.657 74.0645V70.3871C238.754 70.3871 241.238 69.3226 243.109 67.1935C245.044 65 246.302 61.8387 246.883 57.7097H250.56C250.302 61.4516 250.173 64.3871 250.173 66.5161C250.238 68.5806 250.27 70.4839 250.27 72.2258C250.27 73.6452 250.27 75.0968 250.27 76.5806C250.335 78 250.399 79.6452 250.464 81.5161C250.593 83.3226 250.722 85.5161 250.851 88.0968H247.173ZM268.598 106V102.226C271.501 102.097 273.63 101.839 274.985 101.452C276.404 101.065 277.339 100.29 277.791 99.129C278.243 97.9677 278.468 96.2258 278.468 93.9032V49.5806C278.468 47.1935 278.243 45.4516 277.791 44.3548C277.339 43.1936 276.404 42.4194 274.985 42.0323C273.63 41.5806 271.501 41.3226 268.598 41.2581V37.4839C270.404 37.5484 272.888 37.6129 276.049 37.6774C279.275 37.7419 282.985 37.7742 287.178 37.7742C291.049 37.7742 294.533 37.7419 297.63 37.6774C300.727 37.6129 303.178 37.5484 304.985 37.4839V41.2581C302.081 41.3226 299.92 41.5806 298.501 42.0323C297.146 42.4194 296.243 43.1936 295.791 44.3548C295.339 45.4516 295.114 47.1935 295.114 49.5806V93.9032C295.114 96.2258 295.339 97.9677 295.791 99.129C296.243 100.226 297.178 101 298.598 101.452C300.017 101.839 302.146 102.097 304.985 102.226V106C303.178 105.871 300.727 105.806 297.63 105.806C294.533 105.742 291.049 105.71 287.178 105.71C282.985 105.71 279.275 105.742 276.049 105.806C272.888 105.806 270.404 105.871 268.598 106ZM351.92 106V102.226C355.856 102.161 358.275 101.484 359.178 100.194C360.081 98.9032 359.533 96.9677 357.533 94.3871L322.21 48.0323C320.339 45.6452 318.598 43.9355 316.985 42.9032C315.372 41.871 313.21 41.3226 310.501 41.2581V37.4839C313.275 37.5484 316.178 37.6129 319.21 37.6774C322.243 37.7419 325.404 37.7742 328.694 37.7742C332.759 37.7742 336.372 37.7419 339.533 37.6774C342.759 37.6129 345.468 37.5484 347.662 37.4839V41.2581C343.92 41.3226 341.598 42 340.694 43.2903C339.856 44.5806 340.436 46.5161 342.436 49.0968L377.759 95.4516C379.565 97.8387 381.275 99.5484 382.888 100.581C384.565 101.548 386.759 102.097 389.468 102.226V106C386.694 105.871 383.791 105.806 380.759 105.806C377.727 105.742 374.565 105.71 371.275 105.71C367.146 105.71 363.436 105.742 360.146 105.806C356.92 105.806 354.178 105.871 351.92 106ZM310.404 106V102.323C312.791 101.677 314.888 100.935 316.694 100.097C318.565 99.2581 320.339 98.129 322.017 96.7097C323.759 95.2258 325.598 93.3548 327.533 91.0968L343.501 72.0323L346.791 73.7742L335.759 87.129C333.307 90.0323 331.823 92.5806 331.307 94.7742C330.856 96.9677 331.372 98.7419 332.856 100.097C334.339 101.387 336.856 102.129 340.404 102.323V106C338.081 105.871 335.533 105.806 332.759 105.806C329.985 105.742 327.114 105.71 324.146 105.71C322.081 105.71 320.049 105.742 318.049 105.806C316.049 105.806 313.501 105.871 310.404 106ZM352.694 70.2903L349.307 68.6452L359.565 56.1613C362.017 53.3226 363.501 50.8065 364.017 48.6129C364.533 46.4194 364.081 44.6774 362.662 43.3871C361.307 42.0968 358.952 41.3548 355.598 41.1613V37.4839C358.049 37.5484 360.565 37.6129 363.146 37.6774C365.727 37.7419 368.372 37.7742 371.081 37.7742C373.146 37.7742 375.178 37.7419 377.178 37.6774C379.178 37.6129 381.694 37.5484 384.727 37.4839V41.1613C382.339 41.8065 380.21 42.5806 378.339 43.4839C376.468 44.3226 374.694 45.4516 373.017 46.871C371.339 48.2903 369.533 50.129 367.598 52.3871L352.694 70.2903Z" fill="black"/>
</svg>
