<svg width="30" height="30" viewBox="0 0 30 30" fill="none" xmlns="http://www.w3.org/2000/svg">
<path d="M15 27.5C21.9036 27.5 27.5 21.9036 27.5 15C27.5 8.09644 21.9036 2.5 15 2.5C8.09644 2.5 2.5 8.09644 2.5 15C2.5 21.9036 8.09644 27.5 15 27.5Z" stroke="white" stroke-width="1.875" stroke-linecap="round" stroke-linejoin="round"/>
<path d="M9.375 15.0863C10.75 14.6238 12.22 14.375 13.75 14.375C16.28 14.375 18.65 15.0587 20.6862 16.25M22.5 12.5C20.1875 10.9225 17.39 10 14.375 10C12.3787 10 10.4775 10.405 8.75 11.135M18.9112 20C16.4056 18.7122 13.5092 18.4068 10.79 19.1437" stroke="white" stroke-width="1.875" stroke-linecap="round" stroke-linejoin="round"/>
</svg>
