<svg width="30" height="30" viewBox="0 0 30 30" fill="none" xmlns="http://www.w3.org/2000/svg">
<path fill-rule="evenodd" clip-rule="evenodd" d="M8.73631 6.11229C12.9057 5.78483 17.0944 5.78483 21.2638 6.11229L24.0638 6.33229C24.8222 6.39141 25.5389 6.70267 26.0998 7.21647C26.6607 7.73026 27.0335 8.41702 27.1588 9.16729C27.8051 13.0298 27.8051 16.971 27.1588 20.8323C27.0336 21.5824 26.661 22.269 26.1003 22.7828C25.5397 23.2965 24.8232 23.6079 24.0651 23.6673L21.2651 23.886C17.0952 24.2136 12.9061 24.2136 8.73631 23.886L5.93631 23.6673C5.17795 23.6082 4.4612 23.2969 3.90029 22.7831C3.33937 22.2693 2.96658 21.5826 2.84131 20.8323C2.1958 16.9707 2.1958 13.0288 2.84131 9.16729C2.96652 8.41721 3.33914 7.7306 3.8998 7.21683C4.46046 6.70306 5.17692 6.39168 5.93506 6.33229L8.73631 6.11229ZM12.5001 18.0873V11.9123C12.5002 11.846 12.5178 11.781 12.5512 11.7237C12.5847 11.6665 12.6327 11.6192 12.6903 11.5865C12.748 11.5539 12.8133 11.5371 12.8796 11.5379C12.9458 11.5387 13.0107 11.557 13.0676 11.591L18.2138 14.6785C18.2692 14.7119 18.315 14.759 18.3468 14.8153C18.3786 14.8716 18.3954 14.9351 18.3954 14.9998C18.3954 15.0644 18.3786 15.128 18.3468 15.1843C18.315 15.2406 18.2692 15.2877 18.2138 15.321L13.0676 18.4085C13.0107 18.4426 12.9458 18.4609 12.8796 18.4617C12.8133 18.4625 12.748 18.4457 12.6903 18.4131C12.6327 18.3804 12.5847 18.3331 12.5512 18.2758C12.5178 18.2186 12.5002 18.1536 12.5001 18.0873Z" fill="white"/>
</svg>
