<svg width="996" height="1176" viewBox="0 0 996 1176" fill="none" xmlns="http://www.w3.org/2000/svg">
<path d="M47.375 109.517C81.5021 109.498 81.5021 109.498 94.0676 109.492C94.8765 109.491 95.6855 109.491 96.519 109.49C194.225 109.443 291.932 109.43 535.985 109.754C536.762 109.757 537.539 109.759 538.34 109.761C544.641 109.779 544.641 109.779 547.683 109.787C559.16 109.819 570.637 109.843 582.115 109.863C595.097 109.886 608.078 109.919 621.06 109.966C627.597 109.989 634.133 110.008 640.67 110.015C737.165 110.124 835.116 126.15 912.375 188.517C913.306 189.245 914.236 189.974 915.195 190.724C919.517 194.12 923.581 197.529 927.375 201.517C928.833 202.955 930.291 204.393 931.75 205.83C935.822 209.915 939.685 214.085 943.375 218.517C943.807 219.035 944.239 219.553 944.684 220.087C952.214 229.171 959.134 238.5 965.375 248.517C965.752 249.115 966.129 249.713 966.518 250.329C985.225 280.372 995.395 318.064 995.578 353.388C995.585 354.3 995.592 355.211 995.599 356.15C995.819 392.951 992.792 428.543 980.375 463.517C980.149 464.179 979.923 464.84 979.689 465.521C971.476 489.514 959.239 511.736 943.375 531.517C942.582 532.514 941.789 533.51 940.973 534.537C929.87 548.208 917.314 560.787 903.12 571.23C901.299 572.573 899.499 573.942 897.699 575.314C827.787 628.19 734.779 644.661 649.375 651.767C647.881 651.892 647.881 651.892 646.357 652.019C643.447 652.259 640.536 652.491 637.625 652.72C636.801 652.787 635.977 652.853 635.128 652.922C617.26 654.282 599.424 654.662 581.51 654.631C579.202 654.63 576.894 654.63 574.585 654.631C568.388 654.631 562.191 654.625 555.994 654.618C549.492 654.612 542.99 654.612 536.488 654.61C525.597 654.608 514.706 654.601 503.815 654.593C492.609 654.583 481.403 654.576 470.197 654.572C469.504 654.572 468.81 654.571 468.096 654.571C464.616 654.57 461.137 654.569 457.657 654.567C428.896 654.557 400.136 654.539 371.375 654.517C371.136 683.29 370.982 712.062 370.94 740.836C370.935 744.251 370.929 747.666 370.923 751.081C370.922 751.761 370.921 752.44 370.92 753.141C370.899 764.074 370.821 775.007 370.722 785.941C370.622 797.201 370.585 808.461 370.601 819.723C370.607 826.031 370.588 832.337 370.498 838.644C370.123 866.486 370.445 889.007 386.428 912.574C389.394 917.058 391.806 921.798 394.25 926.58C395.015 928.01 395.782 929.439 396.555 930.865C398.297 934.088 399.162 936.878 400.375 940.517C283.885 940.517 167.395 940.517 47.375 940.517C52.6381 929.406 57.8653 918.392 63.5625 907.517C64.1394 906.407 64.7162 905.297 65.3105 904.154C70.2419 894.691 70.2419 894.691 71.8374 892.602C78.5606 882.815 77.2271 871.399 77.1773 860.033C77.1885 857.615 77.2023 855.197 77.2185 852.78C77.2475 847.53 77.2579 842.281 77.2517 837.032C77.2426 829.225 77.2676 821.419 77.299 813.612C77.3569 798.854 77.3739 784.095 77.3773 769.337C77.3801 757.933 77.3924 746.529 77.4115 735.125C77.4169 731.839 77.4222 728.553 77.4276 725.267C77.4289 724.45 77.4302 723.633 77.4316 722.791C77.4685 699.814 77.4922 676.837 77.4895 653.86C77.4894 652.561 77.4894 652.561 77.4893 651.236C77.4888 646.847 77.4882 642.458 77.4875 638.069C77.4874 637.198 77.4873 636.326 77.4872 635.428C77.4869 633.665 77.4867 631.903 77.4864 630.14C77.4828 602.741 77.5277 575.343 77.6099 547.944C77.7022 517.136 77.7537 486.328 77.7481 455.519C77.7476 452.229 77.7473 448.939 77.7472 445.649C77.7471 444.839 77.747 444.029 77.7469 443.194C77.7468 430.197 77.785 417.201 77.8368 404.205C77.8878 391.122 77.8934 378.041 77.8541 364.959C77.832 357.202 77.8425 349.448 77.9018 341.691C77.9424 335.875 77.9191 330.061 77.8725 324.245C77.8634 321.91 77.874 319.576 77.9077 317.241C78.1336 300.465 74.3168 288.682 65.9057 274.181C63.9131 270.713 62.0666 267.177 60.2238 263.628C59.1059 261.476 57.9667 259.336 56.8242 257.197C53.5886 251.014 50.4956 244.758 47.375 238.517C163.865 238.517 280.355 238.517 400.375 238.517C398.125 245.267 398.125 245.267 396.623 248.173C396.121 249.151 396.121 249.151 395.609 250.148C395.072 251.18 395.072 251.18 394.523 252.232C394.146 252.965 393.768 253.697 393.379 254.452C392.173 256.789 390.962 259.122 389.75 261.455C388.959 262.986 388.169 264.518 387.379 266.05C386.594 267.569 385.809 269.088 385.023 270.607C384.677 271.276 384.331 271.946 383.974 272.635C383.621 273.315 383.268 273.996 382.904 274.697C382.549 275.41 382.194 276.123 381.828 276.858C380.375 279.517 380.375 279.517 378.413 282.283C370.586 294.324 371.237 306.538 371.362 320.522C371.384 324.033 371.36 327.544 371.342 331.055C371.317 337.122 371.32 343.188 371.344 349.254C371.378 358.025 371.368 366.796 371.348 375.567C371.315 389.801 371.318 404.034 371.344 418.268C371.369 432.086 371.377 445.904 371.363 459.721C371.362 460.575 371.361 461.428 371.36 462.307C371.356 466.589 371.351 470.87 371.346 475.151C371.304 510.607 371.321 546.062 371.375 581.517C395.994 581.433 420.613 581.338 445.233 581.23C456.666 581.18 468.1 581.133 479.533 581.095C489.51 581.062 499.486 581.022 509.463 580.974C514.735 580.949 520.007 580.927 525.28 580.914C565.932 580.804 604.803 580.402 641.375 560.517C642.945 559.686 642.945 559.686 644.547 558.837C670.696 544.379 690.866 520.846 704.375 494.517C704.933 493.445 704.933 493.445 705.503 492.352C722.69 459.025 729.388 421.759 730.375 384.517C730.397 383.815 730.419 383.114 730.441 382.391C731.815 333.153 721.93 278.501 688.176 240.705C686.375 238.517 686.375 238.517 686.375 236.517C685.715 236.517 685.055 236.517 684.375 236.517C684.375 235.857 684.375 235.197 684.375 234.517C683.715 234.517 683.055 234.517 682.375 234.517C682.375 233.857 682.375 233.197 682.375 232.517C681.715 232.517 681.055 232.517 680.375 232.517C680.375 231.857 680.375 231.197 680.375 230.517C679.715 230.517 679.055 230.517 678.375 230.517C678.375 229.857 678.375 229.197 678.375 228.517C677.715 228.517 677.055 228.517 676.375 228.517C676.375 227.857 676.375 227.197 676.375 226.517C675.715 226.517 675.055 226.517 674.375 226.517C673.253 225.395 672.135 224.27 671.031 223.13C644.422 197.211 603.617 185.465 567.308 185.328C566.098 185.319 564.887 185.311 563.64 185.302C560.24 185.28 556.84 185.262 553.439 185.247C550.417 185.232 547.394 185.214 544.372 185.195C535.787 185.144 527.202 185.099 518.617 185.058C512.093 185.026 505.569 184.993 499.046 184.958C403.219 184.448 307.39 184.22 96.2647 183.644C95.4835 183.642 94.7023 183.64 93.8975 183.638C78.39 183.597 62.8825 183.557 47.375 183.517C47.375 159.097 47.375 134.677 47.375 109.517Z" fill="black"/>
<path d="M27.5675 0.259735C28.2601 0.256229 28.9526 0.252723 29.6661 0.249111C31.98 0.239828 34.2937 0.244712 36.6076 0.249578C38.286 0.245841 39.9644 0.241238 41.6428 0.235848C46.2501 0.223619 50.8573 0.223878 55.4646 0.226236C60.4354 0.226645 65.4061 0.215605 70.3769 0.206121C80.1133 0.189512 89.8497 0.184012 99.5861 0.182897C107.5 0.181946 115.413 0.177836 123.327 0.171495C145.762 0.153884 168.198 0.144656 190.633 0.146156C192.447 0.146276 192.447 0.146276 194.298 0.146398C195.509 0.14648 196.72 0.146562 197.967 0.146646C217.596 0.147459 237.225 0.128315 256.854 0.100122C277.008 0.0714028 297.162 0.0575808 317.317 0.0593093C328.632 0.0599734 339.947 0.0544682 351.263 0.0329532C360.896 0.0147546 370.528 0.0103832 380.161 0.023972C385.076 0.030508 389.99 0.0305959 394.905 0.0132655C399.405 -0.0024419 403.905 0.000374548 408.406 0.0178338C410.032 0.0209088 411.659 0.0172524 413.285 0.00611363C423.239 -0.0575285 431.328 0.255337 439.188 6.892C445.703 14.71 447.204 20.4885 446.375 30.517C444.496 39.2744 437.352 45.3018 431.375 51.517C430.156 52.8823 428.946 54.256 427.75 55.642C425.158 58.631 422.526 61.5802 419.875 64.517C417.127 67.5635 414.391 70.6187 411.688 73.7045C411.125 74.3426 410.563 74.9807 409.984 75.6381C408.924 76.8765 407.891 78.1397 406.891 79.4272C402.477 85.0155 397.365 88.0679 390.375 89.517C388.489 89.6097 386.601 89.6479 384.713 89.6512C382.971 89.6579 382.971 89.6579 381.194 89.6647C379.918 89.6645 378.641 89.6644 377.326 89.6642C375.957 89.6675 374.588 89.6712 373.219 89.6753C369.452 89.6853 365.686 89.6891 361.919 89.6917C357.858 89.6956 353.798 89.7052 349.737 89.7139C339.927 89.7337 330.118 89.7437 320.309 89.7526C315.688 89.757 311.068 89.7624 306.447 89.7676C291.086 89.7847 275.724 89.7991 260.363 89.8064C256.377 89.8083 252.391 89.8102 248.405 89.8122C247.414 89.8127 246.423 89.8131 245.402 89.8136C229.357 89.8219 213.311 89.8473 197.266 89.8798C180.789 89.9128 164.312 89.9308 147.835 89.934C138.585 89.9362 129.336 89.9449 120.086 89.9705C112.208 89.9922 104.329 90.0002 96.451 89.9905C92.4334 89.986 88.416 89.9878 84.3985 90.0073C80.7149 90.025 77.0319 90.0239 73.3484 90.0084C71.3962 90.0049 69.444 90.021 67.4919 90.038C58.6408 89.9736 50.4324 88.8837 43.4375 83.0795C41.4117 80.5626 39.3934 78.0399 37.375 75.517C35.7098 73.8489 34.0429 72.1825 32.375 70.517C29.0005 66.8875 25.6889 63.2019 22.375 59.517C21.6596 58.7294 20.9442 57.9418 20.2071 57.1303C19.5819 56.4329 18.9567 55.7355 18.3125 55.017C17.4908 54.1043 17.4908 54.1043 16.6524 53.1733C15.375 51.517 15.375 51.517 14.375 48.517C13.715 48.517 13.055 48.517 12.375 48.517C10.6144 46.5125 8.9871 44.5107 7.37504 42.392C6.92387 41.8222 6.47269 41.2525 6.00785 40.6654C0.951829 34.0836 -0.583878 27.7487 0.375037 19.517C2.22266 12.0149 6.9564 6.67963 13.375 2.517C18.2321 0.872893 22.4525 0.265599 27.5675 0.259735Z" fill="black"/>
<path d="M64.1289 1085.38C65.285 1085.38 66.4412 1085.37 67.6324 1085.37C68.8983 1085.37 70.1641 1085.37 71.4683 1085.37C72.8301 1085.37 74.1919 1085.36 75.5536 1085.36C79.295 1085.35 83.0364 1085.35 86.7778 1085.34C90.8134 1085.34 94.849 1085.33 98.8846 1085.32C108.63 1085.3 118.375 1085.29 128.12 1085.28C132.711 1085.28 137.302 1085.27 141.893 1085.27C157.158 1085.25 172.422 1085.23 187.687 1085.23C191.647 1085.23 195.607 1085.22 199.566 1085.22C201.043 1085.22 201.043 1085.22 202.549 1085.22C218.491 1085.21 234.433 1085.19 250.375 1085.15C266.748 1085.12 283.12 1085.1 299.493 1085.1C308.684 1085.1 317.874 1085.09 327.065 1085.06C334.892 1085.04 342.719 1085.03 350.546 1085.04C354.538 1085.05 358.529 1085.05 362.52 1085.03C366.179 1085.01 369.838 1085.01 373.498 1085.03C375.437 1085.03 377.376 1085.01 379.315 1085C388.044 1085.06 396.259 1086.13 403.188 1091.83C403.909 1092.72 404.631 1093.6 405.375 1094.52C406.372 1095.69 407.372 1096.85 408.375 1098.02C408.884 1098.62 409.393 1099.22 409.918 1099.84C411.118 1101.22 412.394 1102.54 413.688 1103.83C419.609 1109.75 425.083 1116.13 430.555 1122.46C431.884 1123.96 433.249 1125.43 434.633 1126.88C441.373 1134.03 446.527 1140.46 446.938 1150.58C446.577 1157.97 444.598 1163.78 439.125 1168.89C431 1175.77 420.972 1174.94 410.984 1174.9C409.301 1174.91 407.617 1174.91 405.934 1174.92C401.318 1174.94 396.701 1174.93 392.085 1174.92C387.102 1174.92 382.12 1174.93 377.138 1174.94C367.381 1174.96 357.624 1174.96 347.867 1174.95C339.937 1174.95 332.006 1174.95 324.076 1174.96C322.948 1174.96 321.819 1174.96 320.656 1174.96C318.363 1174.96 316.07 1174.96 313.777 1174.96C292.276 1174.98 270.774 1174.97 249.273 1174.96C229.602 1174.95 209.931 1174.96 190.26 1174.99C170.06 1175.01 149.861 1175.02 129.662 1175.02C118.322 1175.01 106.982 1175.01 95.642 1175.03C85.989 1175.05 76.3361 1175.05 66.6831 1175.03C61.7585 1175.02 56.834 1175.02 51.9093 1175.03C47.3996 1175.05 42.8902 1175.04 38.3805 1175.02C36.7507 1175.02 35.1208 1175.02 33.4911 1175.03C23.8296 1175.09 16.1202 1174.61 8.07031 1168.88C2.63069 1163.3 0.296144 1158.27 0 1150.45C0.410078 1140.08 7.19533 1131.99 14.0625 1124.64C14.8256 1123.94 15.5888 1123.24 16.375 1122.52C19.3596 1119.69 21.9473 1116.83 24.375 1113.52C26.8027 1110.21 29.3904 1107.35 32.375 1104.52C34.7552 1102.2 37.0609 1099.89 39.1875 1097.34C46.3337 1088.81 52.9378 1085.4 64.1289 1085.38Z" fill="black"/>
<path d="M204 331C216.87 331 229.74 331 243 331C243 501.94 243 672.88 243 849C230.13 849 217.26 849 204 849C204 678.06 204 507.12 204 331Z" fill="#FDFDFD"/>
<path d="M123 331C135.87 331 148.74 331 162 331C162 501.94 162 672.88 162 849C149.13 849 136.26 849 123 849C123 678.06 123 507.12 123 331Z" fill="#FDFDFD"/>
<path d="M283 331C295.87 331 308.74 331 322 331C322 501.61 322 672.22 322 848C309.13 848 296.26 848 283 848C283 677.39 283 506.78 283 331Z" fill="white"/>
<path d="M47.375 1011.52C164.195 1011.52 281.015 1011.52 401.375 1011.52C401.375 1029.34 401.375 1047.16 401.375 1065.52C284.555 1065.52 167.735 1065.52 47.375 1065.52C47.375 1047.7 47.375 1029.88 47.375 1011.52Z" fill="black"/>
<path d="M47.375 961.517C164.195 961.517 281.015 961.517 401.375 961.517C401.375 970.427 401.375 979.337 401.375 988.517C284.555 988.517 167.735 988.517 47.375 988.517C47.375 979.607 47.375 970.697 47.375 961.517Z" fill="black"/>
</svg>
