<svg width="628" height="647" viewBox="0 0 628 647" fill="none" xmlns="http://www.w3.org/2000/svg">
<path d="M328 79C328 83.62 328 88.24 328 93C322.39 93 316.78 93 311 93C311 93.99 311 94.98 311 96C311.557 96.049 312.114 96.098 312.688 96.1485C317.966 96.6656 322.884 97.6046 328 99C328 99.99 328 100.98 328 102C310.84 102 293.68 102 276 102C276 94.74 276 87.48 276 80C290.94 71.0362 312.049 74.3049 328 79Z" fill="#C4AF8C"/>
<path d="M294 29C295.32 29 296.64 29 298 29C298.99 31.64 299.98 34.28 301 37C301.66 37 302.32 37 303 37C303.99 34.36 304.98 31.72 306 29C307.65 29 309.3 29 311 29C310.896 30.0132 310.791 31.0264 310.684 32.0703C310.388 36.1928 310.343 39.9001 311 44C313.19 46.4332 315.077 47.5542 318.031 48.9219C319.006 49.4555 319.006 49.4555 320 50C320 50.99 320 51.98 320 53C313.4 53 306.8 53 300 53C300 53.99 300 54.98 300 56C301.12 56.2655 302.24 56.5311 303.395 56.8047C304.867 57.1611 306.34 57.5179 307.813 57.875C308.551 58.049 309.289 58.223 310.049 58.4023C313.497 59.2449 316.019 60.0129 319 62C319 62.99 319 63.98 319 65C307.265 66.4287 295.828 67.2937 284 67C283.864 64.4357 283.766 61.8786 283.688 59.3125C283.646 58.5913 283.604 57.87 283.561 57.127C283.466 53.0038 283.632 51.4692 286.27 48.1055C289 46 289 46 291.266 45.1641C291.838 44.7799 292.41 44.3958 293 44C293.467 41.3352 293.696 39.0493 293.75 36.375C293.78 35.6686 293.809 34.9622 293.84 34.2344C293.911 32.4902 293.958 30.7451 294 29Z" fill="#C4AF8C"/>
<path d="M293 0C298.61 0 304.22 0 310 0C310 5.89382 309.548 10.6446 308.375 16.3125C308.234 17.1227 308.094 17.9329 307.949 18.7676C307.482 21.0122 307.011 22.9415 306 25C302.374 26.93 300.12 27 296 27C296.511 20.5632 297.729 15.0406 300 9C297.69 9.33 295.38 9.66 293 10C293 6.7 293 3.4 293 0Z" fill="#C4AF8C"/>
<path d="M318 77C321.393 77.5398 324.662 78.1655 328 79C328 83.62 328 88.24 328 93C322.39 93 316.78 93 311 93C311 93.99 311 94.98 311 96C311.99 96 312.98 96 314 96C314 96.66 314 97.32 314 98C312.02 97.67 310.04 97.34 308 97C308 95.35 308 93.7 308 92C314.326 91.0962 319.674 91.0962 326 92C326.33 88.04 326.66 84.08 327 80C325.701 79.8763 324.401 79.7525 323.062 79.625C320.848 79.4141 320.848 79.4141 319 79C318.67 78.34 318.34 77.68 318 77Z" fill="#C4AF8C"/>
<path d="M526.032 605V603.994C526.806 603.959 527.374 603.89 527.735 603.787C528.114 603.684 528.363 603.477 528.484 603.168C528.604 602.858 528.665 602.394 528.665 601.774V589.955C528.665 589.318 528.604 588.854 528.484 588.561C528.363 588.252 528.114 588.045 527.735 587.942C527.374 587.822 526.806 587.753 526.032 587.735V586.729C526.514 586.746 527.176 586.763 528.019 586.781C528.88 586.798 529.869 586.806 530.987 586.806C532.019 586.806 532.948 586.798 533.774 586.781C534.6 586.763 535.254 586.746 535.735 586.729V587.735C534.961 587.753 534.385 587.822 534.006 587.942C533.645 588.045 533.404 588.252 533.284 588.561C533.163 588.854 533.103 589.318 533.103 589.955V601.774C533.103 602.394 533.163 602.858 533.284 603.168C533.404 603.46 533.654 603.667 534.032 603.787C534.411 603.89 534.978 603.959 535.735 603.994V605C535.254 604.966 534.6 604.948 533.774 604.948C532.948 604.931 532.019 604.923 530.987 604.923C529.869 604.923 528.88 604.931 528.019 604.948C527.176 604.948 526.514 604.966 526.032 605ZM546.52 605V603.994C547.122 603.976 547.526 603.839 547.733 603.581C547.956 603.305 548.068 602.824 548.068 602.135V595.581C548.068 594.738 547.896 594.11 547.552 593.697C547.208 593.267 546.709 593.052 546.055 593.052C545.539 593.052 545.066 593.198 544.636 593.49C544.206 593.783 543.836 594.213 543.526 594.781V593.645C543.956 592.905 544.533 592.329 545.255 591.916C545.995 591.486 546.847 591.271 547.81 591.271C549.186 591.271 550.236 591.675 550.958 592.484C551.698 593.292 552.068 594.454 552.068 595.968V602.135C552.068 602.824 552.232 603.305 552.558 603.581C552.885 603.839 553.479 603.976 554.339 603.994V605C554.081 604.983 553.72 604.974 553.255 604.974C552.791 604.957 552.292 604.94 551.758 604.923C551.225 604.905 550.692 604.897 550.158 604.897C549.453 604.897 548.756 604.914 548.068 604.948C547.38 604.966 546.864 604.983 546.52 605ZM537.384 605V603.994C538.244 603.976 538.838 603.839 539.165 603.581C539.492 603.305 539.655 602.824 539.655 602.135V594.91C539.655 594.101 539.483 593.533 539.139 593.206C538.812 592.862 538.227 592.673 537.384 592.639V591.632C537.763 591.649 538.133 591.667 538.494 591.684C538.855 591.701 539.217 591.71 539.578 591.71C540.386 591.71 541.126 591.684 541.797 591.632C542.468 591.563 543.087 591.469 543.655 591.348V602.135C543.655 602.824 543.767 603.305 543.991 603.581C544.214 603.839 544.619 603.976 545.204 603.994V605C544.825 604.983 544.318 604.966 543.681 604.948C543.044 604.914 542.391 604.897 541.72 604.897C540.946 604.897 540.146 604.914 539.32 604.948C538.511 604.966 537.866 604.983 537.384 605ZM562.218 605.361C560.927 605.361 559.818 605.086 558.889 604.535C557.959 603.968 557.237 603.168 556.721 602.135C556.205 601.086 555.947 599.847 555.947 598.419C555.947 596.923 556.213 595.641 556.747 594.574C557.297 593.508 558.071 592.69 559.069 592.123C560.067 591.555 561.263 591.271 562.656 591.271C563.654 591.271 564.532 591.426 565.289 591.735C566.045 592.028 566.639 592.449 567.069 593C567.499 593.533 567.714 594.153 567.714 594.858C567.714 595.546 567.499 596.123 567.069 596.587C566.639 597.034 566.063 597.258 565.34 597.258C564.824 597.258 564.402 597.129 564.076 596.871C563.766 596.613 563.611 596.269 563.611 595.839C563.611 595.426 563.723 595.082 563.947 594.806C564.17 594.514 564.385 594.247 564.592 594.006C564.815 593.748 564.927 593.473 564.927 593.181C564.927 592.94 564.807 592.751 564.566 592.613C564.325 592.475 564.007 592.406 563.611 592.406C562.527 592.406 561.676 592.897 561.056 593.877C560.437 594.858 560.127 596.217 560.127 597.955C560.127 599.692 560.428 601.026 561.03 601.955C561.633 602.884 562.51 603.348 563.663 603.348C564.437 603.348 565.099 603.142 565.65 602.729C566.218 602.299 566.691 601.662 567.069 600.819L567.998 601.31C567.516 602.634 566.777 603.641 565.779 604.329C564.798 605.017 563.611 605.361 562.218 605.361ZM572.63 605.361C571.856 605.361 571.245 605.172 570.798 604.794C570.351 604.398 570.127 603.865 570.127 603.194C570.127 602.505 570.342 601.972 570.772 601.594C571.22 601.198 571.83 601 572.605 601C573.379 601 573.99 601.198 574.437 601.594C574.884 601.972 575.108 602.505 575.108 603.194C575.108 603.865 574.884 604.398 574.437 604.794C573.99 605.172 573.387 605.361 572.63 605.361Z" fill="#C4AF8C"/>
<path d="M121.871 605V601.226C124.71 601.097 126.839 600.839 128.258 600.452C129.677 600 130.613 599.226 131.065 598.129C131.516 596.968 131.742 595.226 131.742 592.903V548.581C131.742 546.258 131.484 544.548 130.968 543.452C130.516 542.29 129.581 541.484 128.161 541.032C126.806 540.581 124.71 540.323 121.871 540.258V536.484C122.71 536.548 123.839 536.613 125.258 536.677C126.742 536.677 128.581 536.677 130.774 536.677C132.968 536.677 135.645 536.677 138.806 536.677C143.194 536.677 146.774 536.677 149.548 536.677C152.387 536.613 154.548 536.581 156.032 536.581C165.452 536.581 172.581 538.29 177.419 541.71C182.323 545.065 184.774 550.065 184.774 556.71C184.774 561.226 183.581 565.097 181.194 568.323C178.806 571.548 175.355 574.032 170.839 575.774C166.323 577.452 160.871 578.29 154.484 578.29C153.065 578.29 151.645 578.258 150.226 578.194C148.871 578.065 147.581 577.903 146.355 577.71C145.129 577.452 144.097 577.226 143.258 577.032V573.258C144.484 573.645 145.871 573.968 147.419 574.226C149.032 574.419 150.742 574.516 152.548 574.516C157.774 574.516 161.548 573.129 163.871 570.355C166.258 567.581 167.452 563.129 167.452 557C167.452 551.258 166.419 547.032 164.355 544.323C162.29 541.613 159.097 540.258 154.774 540.258H148.387V592.419C148.387 594.935 148.677 596.806 149.258 598.032C149.903 599.194 151.161 600 153.032 600.452C154.968 600.903 157.839 601.161 161.645 601.226V605C160.355 604.935 158.613 604.903 156.419 604.903C154.29 604.839 151.871 604.806 149.161 604.806C146.452 604.742 143.581 604.71 140.548 604.71C136.677 604.71 133.194 604.742 130.097 604.806C127 604.871 124.258 604.935 121.871 605ZM215.811 606.355C210.843 606.355 206.456 605.387 202.649 603.452C198.843 601.516 195.843 598.613 193.649 594.742C191.52 590.806 190.456 585.903 190.456 580.032C190.456 574.097 191.52 569.194 193.649 565.323C195.843 561.387 198.843 558.452 202.649 556.516C206.456 554.516 210.875 553.516 215.908 553.516C220.94 553.516 225.327 554.484 229.069 556.419C232.875 558.355 235.843 561.29 237.972 565.226C240.166 569.161 241.262 574.097 241.262 580.032C241.262 585.903 240.166 590.806 237.972 594.742C235.843 598.613 232.875 601.516 229.069 603.452C225.327 605.387 220.908 606.355 215.811 606.355ZM215.908 602.581C218.682 602.581 220.972 600.806 222.778 597.258C224.585 593.645 225.488 587.903 225.488 580.032C225.488 571.968 224.585 566.161 222.778 562.613C220.972 559.065 218.682 557.29 215.908 557.29C213.069 557.29 210.714 559.065 208.843 562.613C207.037 566.161 206.133 571.935 206.133 579.935C206.133 587.871 207.037 593.645 208.843 597.258C210.714 600.806 213.069 602.581 215.908 602.581ZM247.843 605V601.226C250.94 601.161 253.101 600.645 254.327 599.677C255.617 598.71 256.262 596.903 256.262 594.258V542.677C256.262 539.774 255.649 537.645 254.424 536.29C253.262 534.935 251.069 534.226 247.843 534.161V530.29C249.133 530.355 250.456 530.419 251.811 530.484C253.166 530.548 254.488 530.581 255.778 530.581C258.682 530.581 261.424 530.484 264.004 530.29C266.649 530.032 269.069 529.677 271.262 529.226V594.258C271.262 596.968 271.908 598.806 273.198 599.774C274.488 600.677 276.682 601.161 279.778 601.226V605C278.811 604.935 277.456 604.903 275.714 604.903C274.037 604.839 272.166 604.774 270.101 604.71C268.101 604.645 266.069 604.613 264.004 604.613C261.037 604.613 257.972 604.677 254.811 604.806C251.714 604.871 249.391 604.935 247.843 605ZM284.558 605V601.226C287.72 601.161 289.913 600.645 291.139 599.677C292.429 598.71 293.074 596.903 293.074 594.258V567.161C293.074 564.258 292.461 562.161 291.236 560.871C290.074 559.516 287.849 558.774 284.558 558.645V554.871C285.913 554.935 287.236 555 288.526 555.065C289.881 555.129 291.236 555.161 292.59 555.161C295.558 555.161 298.332 555.065 300.913 554.871C303.494 554.613 305.881 554.258 308.074 553.806V594.258C308.074 596.968 308.72 598.806 310.01 599.774C311.3 600.677 313.494 601.161 316.59 601.226V605C315.623 604.935 314.268 604.903 312.526 604.903C310.849 604.839 308.978 604.774 306.913 604.71C304.913 604.645 302.881 604.613 300.816 604.613C297.784 604.613 294.72 604.677 291.623 604.806C288.526 604.871 286.171 604.935 284.558 605ZM300.139 545.581C297.881 545.581 295.849 544.871 294.042 543.452C292.3 542.032 291.429 540.065 291.429 537.548C291.429 534.968 292.3 532.968 294.042 531.548C295.849 530.129 297.881 529.419 300.139 529.419C302.397 529.419 304.429 530.129 306.236 531.548C308.042 532.968 308.945 534.935 308.945 537.452C308.945 540.032 308.042 542.032 306.236 543.452C304.429 544.871 302.397 545.581 300.139 545.581ZM322.496 605V601.226C325.399 601.097 327.528 600.839 328.883 600.452C330.302 600.065 331.238 599.29 331.69 598.129C332.141 596.968 332.367 595.226 332.367 592.903V548.581C332.367 546.258 332.141 544.548 331.69 543.452C331.238 542.29 330.302 541.484 328.883 541.032C327.528 540.581 325.399 540.323 322.496 540.258V536.484C329.399 536.677 340.496 536.774 355.786 536.774C358.819 536.774 361.657 536.774 364.302 536.774C366.948 536.71 369.431 536.677 371.754 536.677C374.077 536.613 376.173 536.548 378.044 536.484C378.044 540.613 378.173 544.548 378.431 548.29C378.754 551.968 379.173 555.516 379.69 558.935H375.722C374.819 554.548 373.625 551 372.141 548.29C370.657 545.581 368.819 543.613 366.625 542.387C364.496 541.161 361.883 540.548 358.786 540.548H349.012V592.903C349.012 595.161 349.302 596.871 349.883 598.032C350.464 599.194 351.625 600 353.367 600.452C355.109 600.839 357.754 601.097 361.302 601.226V605C359.173 604.935 356.399 604.871 352.98 604.806C349.625 604.742 345.657 604.71 341.077 604.71C337.593 604.71 334.27 604.742 331.109 604.806C327.948 604.871 325.077 604.935 322.496 605ZM345.915 573.065V569.387H364.206V573.065H345.915ZM365.173 587.097C364.851 583.871 364.206 581.226 363.238 579.161C362.335 577.097 361.077 575.581 359.464 574.613C357.915 573.581 355.98 573.065 353.657 573.065V569.387C356.754 569.387 359.238 568.323 361.109 566.194C363.044 564 364.302 560.839 364.883 556.71H368.56C368.302 560.452 368.173 563.387 368.173 565.516C368.238 567.581 368.27 569.484 368.27 571.226C368.27 572.645 368.27 574.097 368.27 575.581C368.335 577 368.399 578.645 368.464 580.516C368.593 582.323 368.722 584.516 368.851 587.097H365.173ZM386.598 605V601.226C389.501 601.097 391.63 600.839 392.985 600.452C394.404 600.065 395.339 599.29 395.791 598.129C396.243 596.968 396.468 595.226 396.468 592.903V548.581C396.468 546.194 396.243 544.452 395.791 543.355C395.339 542.194 394.404 541.419 392.985 541.032C391.63 540.581 389.501 540.323 386.598 540.258V536.484C388.404 536.548 390.888 536.613 394.049 536.677C397.275 536.742 400.985 536.774 405.178 536.774C409.049 536.774 412.533 536.742 415.63 536.677C418.727 536.613 421.178 536.548 422.985 536.484V540.258C420.081 540.323 417.92 540.581 416.501 541.032C415.146 541.419 414.243 542.194 413.791 543.355C413.339 544.452 413.114 546.194 413.114 548.581V592.903C413.114 595.226 413.339 596.968 413.791 598.129C414.243 599.226 415.178 600 416.598 600.452C418.017 600.839 420.146 601.097 422.985 601.226V605C421.178 604.871 418.727 604.806 415.63 604.806C412.533 604.742 409.049 604.71 405.178 604.71C400.985 604.71 397.275 604.742 394.049 604.806C390.888 604.806 388.404 604.871 386.598 605ZM469.92 605V601.226C473.856 601.161 476.275 600.484 477.178 599.194C478.081 597.903 477.533 595.968 475.533 593.387L440.21 547.032C438.339 544.645 436.598 542.935 434.985 541.903C433.372 540.871 431.21 540.323 428.501 540.258V536.484C431.275 536.548 434.178 536.613 437.21 536.677C440.243 536.742 443.404 536.774 446.694 536.774C450.759 536.774 454.372 536.742 457.533 536.677C460.759 536.613 463.468 536.548 465.662 536.484V540.258C461.92 540.323 459.598 541 458.694 542.29C457.856 543.581 458.436 545.516 460.436 548.097L495.759 594.452C497.565 596.839 499.275 598.548 500.888 599.581C502.565 600.548 504.759 601.097 507.468 601.226V605C504.694 604.871 501.791 604.806 498.759 604.806C495.727 604.742 492.565 604.71 489.275 604.71C485.146 604.71 481.436 604.742 478.146 604.806C474.92 604.806 472.178 604.871 469.92 605ZM428.404 605V601.323C430.791 600.677 432.888 599.935 434.694 599.097C436.565 598.258 438.339 597.129 440.017 595.71C441.759 594.226 443.598 592.355 445.533 590.097L461.501 571.032L464.791 572.774L453.759 586.129C451.307 589.032 449.823 591.581 449.307 593.774C448.856 595.968 449.372 597.742 450.856 599.097C452.339 600.387 454.856 601.129 458.404 601.323V605C456.081 604.871 453.533 604.806 450.759 604.806C447.985 604.742 445.114 604.71 442.146 604.71C440.081 604.71 438.049 604.742 436.049 604.806C434.049 604.806 431.501 604.871 428.404 605ZM470.694 569.29L467.307 567.645L477.565 555.161C480.017 552.323 481.501 549.806 482.017 547.613C482.533 545.419 482.081 543.677 480.662 542.387C479.307 541.097 476.952 540.355 473.598 540.161V536.484C476.049 536.548 478.565 536.613 481.146 536.677C483.727 536.742 486.372 536.774 489.081 536.774C491.146 536.774 493.178 536.742 495.178 536.677C497.178 536.613 499.694 536.548 502.727 536.484V540.161C500.339 540.806 498.21 541.581 496.339 542.484C494.468 543.323 492.694 544.452 491.017 545.871C489.339 547.29 487.533 549.129 485.598 551.387L470.694 569.29Z" fill="#C4AF8C"/>
<rect x="0.5" y="625" width="231" height="3" fill="#C4AF8C"/>
<path d="M260.221 636.384C258.411 636.384 256.83 635.982 255.477 635.177C254.125 634.355 253.074 633.203 252.324 631.723C251.575 630.242 251.2 628.505 251.2 626.513C251.2 624.466 251.584 622.674 252.352 621.139C253.138 619.585 254.216 618.378 255.587 617.519C256.958 616.642 258.548 616.203 260.358 616.203C261.235 616.203 261.994 616.295 262.634 616.477C263.274 616.642 263.813 616.852 264.252 617.108C264.709 617.346 265.102 617.556 265.431 617.739C265.778 617.903 266.089 617.985 266.363 617.985C266.637 617.985 266.847 617.858 266.994 617.602C267.158 617.346 267.277 616.925 267.35 616.34H268.447C268.41 616.889 268.383 617.483 268.365 618.123C268.346 618.744 268.337 619.494 268.337 620.371C268.337 621.248 268.337 622.345 268.337 623.661H267.213C267.03 622.345 266.655 621.221 266.089 620.289C265.522 619.356 264.809 618.644 263.95 618.15C263.109 617.656 262.159 617.41 261.098 617.41C259.179 617.41 257.68 618.187 256.602 619.74C255.541 621.294 255.011 623.469 255.011 626.266C255.011 629.063 255.551 631.256 256.629 632.847C257.708 634.419 259.197 635.205 261.098 635.205C262.177 635.205 263.146 634.958 264.005 634.465C264.864 633.953 265.568 633.222 266.116 632.271C266.683 631.32 267.058 630.205 267.24 628.926H268.337C268.337 630.187 268.337 631.256 268.337 632.134C268.355 633.011 268.374 633.779 268.392 634.437C268.41 635.077 268.428 635.68 268.447 636.247H267.35C267.277 635.644 267.167 635.223 267.021 634.985C266.875 634.748 266.655 634.629 266.363 634.629C266.07 634.629 265.751 634.72 265.403 634.903C265.074 635.068 264.681 635.269 264.224 635.506C263.767 635.744 263.21 635.945 262.552 636.11C261.912 636.292 261.135 636.384 260.221 636.384ZM278.934 636.384C277.618 636.384 276.439 636.119 275.397 635.589C274.373 635.04 273.56 634.218 272.956 633.121C272.371 632.024 272.079 630.626 272.079 628.926C272.079 627.226 272.371 625.827 272.956 624.731C273.56 623.616 274.373 622.793 275.397 622.263C276.439 621.733 277.627 621.468 278.961 621.468C280.296 621.468 281.475 621.733 282.498 622.263C283.522 622.793 284.326 623.616 284.911 624.731C285.514 625.827 285.816 627.226 285.816 628.926C285.816 630.626 285.514 632.024 284.911 633.121C284.326 634.218 283.513 635.04 282.471 635.589C281.447 636.119 280.268 636.384 278.934 636.384ZM278.961 635.315C279.93 635.315 280.725 634.812 281.347 633.806C281.968 632.783 282.279 631.156 282.279 628.926C282.279 626.677 281.959 625.051 281.319 624.045C280.698 623.022 279.912 622.51 278.961 622.51C277.974 622.51 277.161 623.022 276.521 624.045C275.899 625.051 275.589 626.677 275.589 628.926C275.589 631.156 275.899 632.783 276.521 633.806C277.161 634.812 277.974 635.315 278.961 635.315ZM298.221 636V634.931C298.952 634.912 299.446 634.766 299.702 634.492C299.976 634.199 300.113 633.688 300.113 632.956V626.294C300.113 625.233 299.903 624.438 299.482 623.908C299.062 623.378 298.441 623.113 297.618 623.113C296.96 623.113 296.348 623.296 295.781 623.661C295.214 624.027 294.721 624.566 294.3 625.279V624.073C294.757 623.25 295.388 622.61 296.192 622.153C297.015 621.696 297.938 621.468 298.962 621.468C300.406 621.468 301.512 621.906 302.279 622.784C303.065 623.661 303.458 624.923 303.458 626.568V632.956C303.458 633.688 303.659 634.199 304.062 634.492C304.464 634.766 305.195 634.912 306.255 634.931V636C305.981 635.982 305.597 635.973 305.103 635.973C304.61 635.954 304.08 635.936 303.513 635.918C302.946 635.899 302.389 635.89 301.841 635.89C301.146 635.89 300.451 635.909 299.757 635.945C299.08 635.963 298.569 635.982 298.221 636ZM288.323 636V634.931C289.365 634.912 290.087 634.766 290.489 634.492C290.891 634.199 291.092 633.688 291.092 632.956V625.334C291.092 624.456 290.882 623.844 290.462 623.497C290.059 623.131 289.346 622.939 288.323 622.921V621.852C288.707 621.87 289.091 621.888 289.474 621.906C289.858 621.925 290.251 621.934 290.653 621.934C291.366 621.934 292.034 621.906 292.655 621.852C293.295 621.778 293.889 621.678 294.437 621.55V632.956C294.437 633.688 294.574 634.199 294.849 634.492C295.123 634.766 295.616 634.912 296.329 634.931V636C295.927 635.982 295.406 635.963 294.766 635.945C294.127 635.909 293.469 635.89 292.792 635.89C292.006 635.89 291.193 635.909 290.352 635.945C289.529 635.963 288.853 635.982 288.323 636ZM314.666 636.384C313.88 636.384 313.222 636.302 312.692 636.137C312.162 635.973 311.723 635.808 311.376 635.644C311.029 635.479 310.727 635.397 310.471 635.397C310.033 635.397 309.713 635.68 309.512 636.247H308.442C308.497 635.772 308.534 635.278 308.552 634.766C308.57 634.236 308.579 633.651 308.579 633.011C308.598 632.353 308.598 631.595 308.579 630.735H309.621C309.914 632.253 310.453 633.395 311.239 634.163C312.025 634.912 313.049 635.287 314.31 635.287C315.206 635.287 315.891 635.095 316.366 634.711C316.86 634.327 317.107 633.797 317.107 633.121C317.107 632.463 316.842 631.924 316.312 631.503C315.8 631.083 314.895 630.69 313.597 630.324C311.934 629.831 310.718 629.2 309.95 628.432C309.183 627.665 308.799 626.705 308.799 625.553C308.799 624.31 309.21 623.323 310.033 622.592C310.855 621.842 311.961 621.468 313.35 621.468C314.081 621.468 314.694 621.55 315.187 621.715C315.699 621.861 316.129 622.025 316.476 622.208C316.823 622.373 317.134 622.455 317.408 622.455C317.591 622.455 317.746 622.391 317.874 622.263C318.002 622.117 318.112 621.897 318.203 621.605H319.273C319.236 622.007 319.209 622.427 319.191 622.866C319.172 623.287 319.154 623.78 319.136 624.347C319.136 624.895 319.145 625.581 319.163 626.403H318.094C317.856 625.178 317.353 624.228 316.586 623.552C315.818 622.875 314.895 622.537 313.816 622.537C313.067 622.537 312.482 622.711 312.062 623.058C311.641 623.405 311.431 623.899 311.431 624.539C311.431 625.197 311.714 625.754 312.281 626.211C312.848 626.65 313.826 627.07 315.215 627.473C316.805 627.911 317.957 628.487 318.67 629.2C319.383 629.895 319.739 630.827 319.739 631.997C319.739 633.368 319.282 634.446 318.368 635.232C317.472 636 316.238 636.384 314.666 636.384ZM329.173 636.384C327.748 636.384 326.651 635.945 325.883 635.068C325.134 634.172 324.759 632.902 324.759 631.256V625.334C324.759 624.456 324.549 623.844 324.128 623.497C323.708 623.131 322.986 622.939 321.962 622.921V621.852C322.309 621.87 322.675 621.888 323.059 621.906C323.461 621.925 323.872 621.934 324.293 621.934C324.987 621.934 325.645 621.906 326.267 621.852C326.907 621.778 327.519 621.678 328.104 621.55V631.613C328.104 632.655 328.305 633.441 328.707 633.971C329.109 634.483 329.713 634.739 330.517 634.739C331.157 634.739 331.751 634.556 332.299 634.19C332.848 633.825 333.323 633.285 333.725 632.573L333.67 633.779C333.25 634.602 332.646 635.241 331.86 635.698C331.074 636.155 330.179 636.384 329.173 636.384ZM333.56 636.302V625.306C333.56 624.447 333.387 623.844 333.039 623.497C332.692 623.131 332.08 622.939 331.202 622.921V621.852C331.531 621.87 331.87 621.888 332.217 621.906C332.564 621.925 332.93 621.934 333.314 621.934C333.99 621.934 334.621 621.906 335.206 621.852C335.809 621.778 336.376 621.678 336.906 621.55V632.518C336.906 633.377 337.116 633.989 337.536 634.355C337.957 634.72 338.67 634.912 339.675 634.931V636C339.328 635.963 338.962 635.945 338.578 635.945C338.194 635.927 337.801 635.918 337.399 635.918C336.686 635.918 336.01 635.945 335.37 636C334.749 636.073 334.145 636.174 333.56 636.302ZM341.09 636V634.931C342.132 634.912 342.854 634.766 343.256 634.492C343.676 634.218 343.887 633.706 343.887 632.956V618.315C343.887 617.474 343.686 616.87 343.283 616.505C342.881 616.121 342.15 615.92 341.09 615.902V614.832C341.474 614.851 341.858 614.869 342.241 614.887C342.625 614.905 343.009 614.915 343.393 614.915C344.106 614.915 344.782 614.887 345.422 614.832C346.08 614.759 346.683 614.659 347.232 614.531V632.956C347.232 633.706 347.433 634.218 347.835 634.492C348.255 634.766 348.977 634.912 350.001 634.931V636C349.727 635.982 349.343 635.973 348.85 635.973C348.374 635.954 347.853 635.936 347.287 635.918C346.72 635.899 346.153 635.89 345.587 635.89C344.746 635.89 343.896 635.909 343.037 635.945C342.177 635.963 341.529 635.982 341.09 636ZM358.093 636.384C356.686 636.384 355.626 635.991 354.913 635.205C354.218 634.401 353.871 633.203 353.871 631.613V622.921H350.745V621.852H353.871V617.794C354.51 617.794 355.105 617.757 355.653 617.684C356.201 617.592 356.713 617.474 357.188 617.327V621.852H361.576V622.921H357.188V632.463C357.188 633.231 357.344 633.797 357.655 634.163C357.965 634.528 358.431 634.711 359.053 634.711C359.638 634.711 360.122 634.528 360.506 634.163C360.908 633.797 361.228 633.249 361.466 632.518L362.316 632.847C361.969 634.072 361.457 634.967 360.78 635.534C360.104 636.101 359.208 636.384 358.093 636.384ZM370.713 636.384C369.927 636.384 369.269 636.302 368.739 636.137C368.209 635.973 367.77 635.808 367.423 635.644C367.076 635.479 366.774 635.397 366.518 635.397C366.079 635.397 365.759 635.68 365.558 636.247H364.489C364.544 635.772 364.58 635.278 364.599 634.766C364.617 634.236 364.626 633.651 364.626 633.011C364.644 632.353 364.644 631.595 364.626 630.735H365.668C365.961 632.253 366.5 633.395 367.286 634.163C368.072 634.912 369.096 635.287 370.357 635.287C371.253 635.287 371.938 635.095 372.413 634.711C372.907 634.327 373.154 633.797 373.154 633.121C373.154 632.463 372.889 631.924 372.358 631.503C371.847 631.083 370.942 630.69 369.644 630.324C367.98 629.831 366.765 629.2 365.997 628.432C365.229 627.665 364.846 626.705 364.846 625.553C364.846 624.31 365.257 623.323 366.079 622.592C366.902 621.842 368.008 621.468 369.397 621.468C370.128 621.468 370.741 621.55 371.234 621.715C371.746 621.861 372.176 622.025 372.523 622.208C372.87 622.373 373.181 622.455 373.455 622.455C373.638 622.455 373.793 622.391 373.921 622.263C374.049 622.117 374.159 621.897 374.25 621.605H375.32C375.283 622.007 375.256 622.427 375.237 622.866C375.219 623.287 375.201 623.78 375.183 624.347C375.183 624.895 375.192 625.581 375.21 626.403H374.141C373.903 625.178 373.4 624.228 372.633 623.552C371.865 622.875 370.942 622.537 369.863 622.537C369.114 622.537 368.529 622.711 368.108 623.058C367.688 623.405 367.478 623.899 367.478 624.539C367.478 625.197 367.761 625.754 368.328 626.211C368.894 626.65 369.872 627.07 371.262 627.473C372.852 627.911 374.004 628.487 374.716 629.2C375.429 629.895 375.786 630.827 375.786 631.997C375.786 633.368 375.329 634.446 374.415 635.232C373.519 636 372.285 636.384 370.713 636.384Z" fill="black"/>
<rect x="396.5" y="625" width="231" height="3" fill="#C4AF8C"/>
<path d="M318.082 402C319.08 402.023 320.078 402.046 321.106 402.07C322.61 402.097 322.61 402.097 324.145 402.125C324.916 402.148 325.686 402.171 326.481 402.195C328.137 405.508 327.725 409.217 327.797 412.863C327.818 413.754 327.839 414.646 327.861 415.564C327.927 418.503 327.986 421.443 328.043 424.383C328.063 425.382 328.083 426.382 328.104 427.412C328.249 434.673 328.37 441.934 328.481 449.195C328.496 450.174 328.511 451.152 328.527 452.16C328.612 457.639 328.677 463.118 328.712 468.598C328.724 470.279 328.742 471.96 328.764 473.641C328.794 475.981 328.804 478.32 328.809 480.66C328.818 481.976 328.827 483.292 328.837 484.648C328.447 488.526 327.546 490.908 325.481 494.195C322.481 496.195 322.481 496.195 319.418 495.945C316.481 495.195 316.481 495.195 314.481 493.195C314.162 490.935 314.162 490.935 314.067 488.004C314.028 486.858 313.989 485.712 313.949 484.532C313.918 483.245 313.887 481.958 313.856 480.633C313.838 479.971 313.82 479.31 313.801 478.628C313.408 464.003 313.349 449.37 313.305 434.741C313.297 432.122 313.286 429.504 313.272 426.886C313.254 423.169 313.25 419.452 313.25 415.734C313.243 414.599 313.236 413.464 313.229 412.295C313.232 411.256 313.235 410.217 313.238 409.147C313.236 408.235 313.235 407.324 313.233 406.384C313.617 402.986 314.745 402.251 318.082 402Z" fill="black" fill-opacity="0.8"/>
<path d="M302.481 404.195C305.045 408.042 304.832 411.275 304.895 415.742C304.915 416.61 304.934 417.477 304.954 418.371C305.015 421.229 305.062 424.087 305.106 426.945C305.142 428.921 305.178 430.896 305.214 432.871C305.304 437.969 305.376 443.068 305.441 448.166C305.48 451.121 305.524 454.075 305.568 457.029C305.633 461.566 305.68 466.102 305.711 470.639C305.724 472.338 305.742 474.036 305.765 475.735C305.795 478.097 305.805 480.458 305.809 482.82C305.828 483.86 305.828 483.86 305.846 484.92C305.832 487.983 305.61 489.968 304.086 492.656C302.481 494.195 302.481 494.195 300.481 494.195C300.481 494.855 300.481 495.515 300.481 496.195C298.042 495.847 296.445 495.173 294.356 493.852C291.325 489.558 292.062 485.055 292.231 479.945C292.249 478.914 292.267 477.883 292.286 476.82C292.333 474.278 292.399 471.737 292.481 469.195C291.821 469.195 291.161 469.195 290.481 469.195C290.388 461.589 290.317 453.983 290.274 446.377C290.253 442.844 290.225 439.312 290.179 435.78C290.127 431.717 290.108 427.654 290.09 423.59C290.059 421.693 290.059 421.693 290.028 419.757C290.028 418.577 290.027 417.396 290.027 416.179C290.018 415.142 290.009 414.105 290 413.037C290.606 409.455 291.994 407.791 294.481 405.195C297.27 403.801 299.402 403.939 302.481 404.195Z" fill="black" fill-opacity="0.8"/>
<path d="M218 162C218.66 162 219.32 162 220 162C218.691 166.277 217.01 170.013 214.875 173.938C212.491 178.63 210.979 181.78 212 187C217.411 190.608 224.617 189.773 231 190C231.797 190.034 232.594 190.068 233.415 190.103C235.818 190.198 238.22 190.26 240.625 190.312C241.37 190.342 242.115 190.372 242.883 190.403C248.105 190.458 251.034 189.374 255 186C256.438 184.11 256.438 184.11 257.25 182.062C257.565 181.368 257.879 180.673 258.203 179.957C258.836 178.402 259.426 176.828 260 175.25C261.298 172.331 262.378 170.863 265 169C269.776 168.384 271.93 168.434 276.188 170.688C279 173 279 173 281.312 175.375C291.981 185.795 306.47 191.066 321.188 191.312C322.222 191.339 322.222 191.339 323.278 191.366C327.666 191.36 330.83 191.158 334 188C334.752 184.942 334.791 181.95 334.812 178.812C334.838 177.968 334.863 177.123 334.889 176.252C334.948 174.168 334.977 172.084 335 170C339.344 172.896 339.676 177.061 340.93 181.883C342.77 188.397 345.548 192.408 351.352 196.176C357 198.731 363.139 199.653 369.197 200.78C382.655 203.297 395.908 206.371 409.125 209.938C409.879 210.141 410.632 210.344 411.409 210.553C415.61 211.689 419.806 212.838 424 214C423.698 212.432 423.393 210.864 423.086 209.297C422.831 207.987 422.831 207.987 422.572 206.651C421.108 199.865 418.914 194.748 415 189C414.424 187.597 413.883 186.179 413.375 184.75C412.308 181.028 412.308 181.028 410 179C408.579 175.368 408 172.945 408 169C408.66 169 409.32 169 410 169C412.872 172.871 415.019 176.883 417.023 181.254C417.57 182.439 418.117 183.624 418.68 184.846C419.245 186.085 419.81 187.324 420.375 188.562C420.932 189.774 421.489 190.986 422.047 192.197C423.152 194.602 424.256 197.007 425.357 199.414C427.478 204.043 429.616 208.665 431.756 213.285C433.23 216.502 434.63 219.738 436 223C436.562 224.313 437.124 225.625 437.688 226.938C438.121 227.948 438.554 228.959 439 230C440.134 229.897 441.269 229.794 442.438 229.688C448.879 229.676 453.801 233.123 458.562 237.188C460 239 460 239 460 241C460.559 241.12 461.119 241.24 461.695 241.363C464.248 242.069 466.477 243.062 468.875 244.188C473.214 246.201 477.586 248.094 482 249.938C488.23 252.585 494.136 255.625 500 259C497.588 250.842 494.936 242.816 492.019 234.826C490.725 231.241 489.611 227.767 489 224C492.609 227.207 494.758 230.819 496.938 235.062C497.461 236.069 497.461 236.069 497.996 237.096C499.009 239.059 500.007 241.028 501 243C501.468 243.923 501.936 244.846 502.418 245.797C507.928 257.28 511.438 269.708 514.875 281.938C515.198 283.082 515.198 283.082 515.527 284.25C516.351 287.254 517 289.871 517 293C518.195 292.849 519.39 292.698 520.621 292.543C523.283 292.549 524.564 292.656 526.672 294.323C528.273 296.249 529.679 298.224 531.062 300.312C531.571 301.046 532.08 301.779 532.604 302.535C533.619 304.006 534.623 305.484 535.615 306.97C536.796 308.701 538.069 310.368 539.359 312.02C544.24 318.531 544.135 322.582 543.094 330.504C542.863 339.125 549.35 347.789 555 354C555.66 354.33 556.32 354.66 557 355C556.819 353.998 556.638 352.995 556.451 351.962C554.463 340.872 552.668 329.758 550.938 318.625C550.427 315.346 549.916 312.067 549.402 308.789C549.281 308.014 549.16 307.239 549.036 306.44C548.234 301.353 547.345 296.29 546.334 291.24C545.97 288.798 545.943 286.465 546 284C564.438 302.438 562.166 355.925 562.191 380.601C562.134 387.866 562.134 387.866 561 389C548.597 389.931 536.832 388.989 526.824 380.785C523.487 377.519 520.518 373.935 518 370C518 369.34 518 368.68 518 368C517.34 368 516.68 368 516 368C514.282 364.018 512.59 360.035 511 356C510.34 356 509.68 356 509 356C507.379 353.734 507.379 353.734 505.562 350.75C503.063 346.66 503.063 346.66 500.277 342.766C499 341 499 341 499 339C490.766 343.446 485.078 351.315 479.812 358.875C474.16 366.791 467.532 370.788 458 373C452.066 373.476 446.285 373.325 440.39 372.487C433.527 371.718 426.621 371.907 419.725 371.955C417.157 371.973 414.589 371.983 412.02 371.991C404.724 372.016 397.428 372.052 390.133 372.096C385.655 372.123 381.177 372.14 376.699 372.151C374.997 372.157 373.295 372.167 371.593 372.181C369.219 372.2 366.845 372.207 364.471 372.211C363.771 372.22 363.07 372.229 362.348 372.238C358.723 372.23 356.083 371.985 353 370C353 369.34 353 368.68 353 368C352.413 367.917 351.827 367.835 351.223 367.75C348.341 366.777 347.321 365.36 345.438 363C342.829 359.683 342.829 359.683 339 358C337.633 356.574 337.633 356.574 336.125 354.688C329.129 346.429 320.675 339.352 312.488 332.305C311.284 331.249 310.133 330.133 309 329C305.623 329.323 303.981 330.66 301.688 333.062C300.889 333.884 300.889 333.884 300.074 334.723C298.277 336.696 296.52 338.696 294.77 340.711C290.948 345.093 286.993 349.337 283 353.562C281.991 354.637 281.991 354.637 280.961 355.732C278.983 357.831 276.994 359.917 275 362C274.38 362.656 273.76 363.311 273.122 363.987C269.928 367.293 267.115 369.883 262.875 371.812C262.068 372.19 261.261 372.568 260.43 372.957C259.628 373.301 258.826 373.645 258 374C257.253 374.339 256.507 374.679 255.738 375.028C245.62 378.62 232.406 377.25 221.688 377.5C199.401 377.813 199.401 377.813 177.312 380.438C176.581 380.559 175.849 380.681 175.096 380.807C170.902 381.535 167.041 382.638 163 384C159.254 384.19 156.561 384.187 153 383C153 382.34 153 381.68 153 381C152.408 380.743 151.817 380.487 151.207 380.223C144.643 376.586 139.175 368.116 135 362C135 361.34 135 360.68 135 360C134.34 360 133.68 360 133 360C132.023 358.242 131.047 356.484 130.07 354.727C128.991 352.839 128.991 352.839 127 351C120.745 356.097 118.007 364.72 115 372C114.34 372 113.68 372 113 372C112.752 372.846 112.505 373.691 112.25 374.562C111.273 377.249 110.308 379.326 108.875 381.75C106.833 384.663 106.833 384.663 107 387C107.66 387.33 108.32 387.66 109 388C109.268 387.113 109.536 386.226 109.812 385.312C110.925 382.209 112.102 379.689 114 377C114.66 377 115.32 377 116 377C116.081 376.326 116.162 375.652 116.246 374.957C117.228 371.105 119.038 368.082 121.062 364.688C121.44 364.042 121.817 363.397 122.205 362.732C123.13 361.151 124.064 359.575 125 358C131.429 360.619 135.624 366.737 139.875 372C140.385 372.603 140.896 373.207 141.422 373.828C143.53 376.45 144.964 378.267 145.133 381.688C143.194 385.646 140.767 387.394 136.596 388.825C133.682 389.64 130.757 390.365 127.812 391.062C125.819 391.552 123.825 392.042 121.832 392.535C120.851 392.776 119.869 393.016 118.858 393.264C116.193 393.95 113.573 394.717 110.945 395.531C105.711 397.138 100.413 398.291 95.0625 399.438C88.2003 400.94 81.6062 402.534 75.1211 405.301C72.601 406.132 70.6371 406.259 68 406C67.34 405.34 66.68 404.68 66 404C66.4078 401.206 67.4695 398.759 68.5938 396.184C73.1142 385.172 74.5888 375.508 74.7275 363.638C75.1689 332.718 81.3652 297.575 96 270C96.66 270 97.32 270 98 270C98.1373 269.153 98.1373 269.153 98.2773 268.289C99.1887 265.402 100.627 263.7 102.562 261.375C105.369 257.976 108.119 254.552 110.812 251.062C113.815 247.287 117.04 243.923 120.5 240.562C126.093 235.094 131.474 229.053 135 222C135.66 222 136.32 222 137 222C137.186 221.216 137.371 220.433 137.562 219.625C139.214 215.461 141.464 212.313 144.078 208.699C145.959 206.058 147.711 203.369 149.438 200.625C150.009 199.724 150.58 198.823 151.168 197.895C152.487 195.811 153.801 193.725 155.113 191.637C155.818 190.54 156.524 189.443 157.25 188.312C157.895 187.298 158.539 186.284 159.203 185.238C159.796 184.5 160.389 183.761 161 183C161.99 183 162.98 183 164 183C164 184.32 164 185.64 164 187C163.34 187 162.68 187 162 187C161.765 187.83 161.531 188.66 161.289 189.516C159.77 193.621 157.696 197.058 155.375 200.75C152.276 205.076 152.276 205.076 151 210C166.7 203.959 166.7 203.959 182 197C182.822 196.588 183.645 196.175 184.492 195.75C195.956 189.465 203.991 179.082 212 169C213.947 166.597 215.915 164.288 218 162Z" fill="black" fill-opacity="0.8"/>
<path d="M399.406 380.754C401.472 380.75 403.538 380.742 405.605 380.734C420.205 380.683 434.545 380.851 449 383C450.626 383.232 452.252 383.463 453.878 383.694C458.986 384.432 464.087 385.213 469.188 386C472.597 386.523 476.008 387.043 479.418 387.562C480.243 387.689 481.067 387.815 481.917 387.945C486.871 388.698 491.829 389.373 496.801 390C502.891 390.792 508.85 391.946 514.861 393.192C522.346 394.696 529.913 395.768 537.456 396.933C582.89 403.963 582.89 403.963 592 407C592.391 413.713 591.833 420.085 590.688 426.687C590.511 427.737 590.511 427.737 590.331 428.808C588.026 441.364 588.026 441.364 583.625 444.918C582.759 445.337 581.892 445.756 581 446.187C576.854 448.23 575.16 449.903 573 454C571.438 455.812 571.438 455.812 570 457C569.34 457 568.68 457 568 457C568 479.44 568 501.88 568 525C564.37 525 560.74 525 557 525C557 502.23 557 479.46 557 456C550.07 455.505 550.07 455.505 543 455C538.765 454.483 534.552 453.937 530.332 453.328C529.173 453.164 528.014 452.999 526.819 452.83C524.38 452.483 521.94 452.133 519.501 451.781C515.867 451.258 512.232 450.745 508.596 450.234C463.103 443.767 463.103 443.767 446 437.75C444.955 437.399 443.909 437.049 442.832 436.687C440.216 435.807 437.607 434.908 435 434C434.01 433.67 433.02 433.34 432 433C432 431.68 432 430.36 432 429C450.137 429.715 468.096 431.958 485.938 435.262C490.051 436.021 494.178 436.674 498.312 437.312C508.033 438.821 517.735 440.441 527.438 442.062C528.215 442.192 528.993 442.322 529.794 442.456C531.325 442.712 532.855 442.968 534.386 443.224C535.864 443.471 537.341 443.718 538.819 443.965C542.082 444.51 545.345 445.059 548.606 445.617C549.664 445.798 550.722 445.978 551.812 446.164C552.715 446.319 553.617 446.475 554.547 446.635C560.84 447.72 560.84 447.72 566.691 445.91C568.668 443.024 568.397 440.581 568.375 437.125C568.383 435.911 568.39 434.696 568.398 433.445C567.976 429.793 566.99 428.022 565 425C565 424.01 565 423.02 565 422C561.33 424.113 558.04 426.462 554.746 429.109C553 430 553 430 550.926 429.762C548.277 428.714 546.826 427.152 545 425C545 424.34 545 423.68 545 423C542.371 424.522 540.156 425.844 538 428C534.558 427.647 532.931 426.954 530 425C530 424.34 530 423.68 530 423C526.253 424.633 526.253 424.633 523 427C520.625 427.375 520.625 427.375 518 427C516.181 424.617 515 423.042 515 420C514.134 420.681 513.267 421.361 512.375 422.062C509 424 509 424 505.875 424C502.647 422.877 501.302 421.461 499 419C498.01 419 497.02 419 496 419C495.546 419.495 495.093 419.99 494.625 420.5C493 422 493 422 490.562 422.5C488 422 488 422 485.688 419.625C484 417 484 417 484 415C483.541 415.361 483.082 415.722 482.609 416.094C481.996 416.558 481.382 417.022 480.75 417.5C480.147 417.964 479.543 418.428 478.922 418.906C477 420 477 420 473 420C471.586 418.285 471.586 418.285 470.375 416.062C468.778 412.932 468.778 412.932 466 411C465.598 411.928 465.598 411.928 465.188 412.875C464 415 464 415 461 417C458.562 417.437 458.562 417.437 456 417C453.688 414.5 453.688 414.5 452 412C449.038 412.613 447.619 413.254 445 415C442.625 415.125 442.625 415.125 440 414C438.618 412.101 437.489 410.12 436.324 408.082C434.302 404.903 432.121 403.103 429 401C425.882 401.646 425.882 401.646 425 404C424.34 404 423.68 404 423 404C422.711 404.722 422.423 405.444 422.125 406.187C421.083 408.792 420.042 411.396 419 414C418.34 414 417.68 414 417 414C415.35 409.38 413.7 404.76 412 400C409.989 399.876 409.989 399.876 407.938 399.75C407.183 399.703 406.429 399.657 405.652 399.609C402.961 400.006 401.638 400.659 399.334 402.024C397.684 403.002 397.684 403.002 396 404C396.02 405.659 396.02 405.659 396.04 407.352C396.162 417.769 396.252 428.187 396.311 438.605C396.342 443.961 396.385 449.317 396.453 454.673C396.518 459.841 396.554 465.008 396.569 470.176C396.58 472.149 396.602 474.122 396.634 476.095C396.678 478.856 396.684 481.614 396.681 484.376C396.703 485.194 396.724 486.012 396.747 486.854C396.722 489.14 396.722 489.14 396 493C393.17 495.608 391.251 496.809 387.445 497.391C386.68 497.344 385.914 497.298 385.125 497.25C384.344 497.214 383.563 497.178 382.758 497.141C382.178 497.094 381.598 497.048 381 497C379.945 480.278 379.689 463.563 379.448 446.813C379.242 432.852 378.943 418.933 378 405C376.68 404.67 375.36 404.34 374 404C374.01 405.681 374.01 405.681 374.02 407.396C374.081 417.947 374.126 428.497 374.155 439.048C374.171 444.473 374.192 449.897 374.226 455.321C374.259 460.554 374.277 465.786 374.285 471.019C374.29 473.018 374.301 475.016 374.317 477.015C374.339 479.809 374.342 482.603 374.341 485.398C374.357 486.644 374.357 486.644 374.373 487.915C374.343 493.57 374.343 493.57 372.665 495.673C369.842 497.923 367.282 498.119 363.812 498.062C362.554 498.042 361.296 498.021 360 498C357.946 465.996 356.773 434.074 357 402C355.35 402 353.7 402 352 402C351.149 407.15 350.853 412.149 350.867 417.371C350.865 418.557 350.865 418.557 350.863 419.768C350.861 422.324 350.868 424.881 350.875 427.437C350.876 428.312 350.877 429.186 350.878 430.087C350.89 440.423 350.999 450.737 351.5 461.062C351.87 468.812 352.191 476.554 352.312 484.312C352.357 485.711 352.357 485.711 352.402 487.139C352.459 493.45 352.459 493.45 350.266 496.078C347.831 497.069 346.063 497.433 343.438 497.437C342.673 497.457 341.909 497.476 341.121 497.496C339 497 339 497 337.393 495.422C335.48 492.097 335.607 489.572 335.583 485.744C335.575 485.02 335.566 484.295 335.557 483.549C335.532 481.156 335.528 478.764 335.523 476.371C335.509 474.699 335.493 473.027 335.476 471.355C335.434 466.949 335.409 462.542 335.389 458.136C335.353 451.108 335.291 444.081 335.23 437.054C335.211 434.613 335.199 432.172 335.189 429.731C335.666 414.497 335.666 414.497 332 400C328.304 398.768 324.858 398.818 321.008 398.797C320.225 398.791 319.442 398.785 318.635 398.779C316.979 398.77 315.323 398.763 313.667 398.76C311.141 398.75 308.616 398.719 306.09 398.687C304.479 398.681 302.868 398.676 301.258 398.672C300.506 398.659 299.753 398.647 298.978 398.634C294.445 398.653 291.435 398.956 288 402C284.435 407.432 283.428 412.135 283.578 418.54C283.582 419.758 283.582 419.758 283.586 421.002C283.598 423.662 283.639 426.321 283.68 428.98C283.692 430.84 283.703 432.7 283.711 434.56C283.738 439.439 283.787 444.318 283.842 449.197C283.928 457.016 283.988 464.835 284.034 472.654C284.054 475.38 284.088 478.106 284.124 480.831C284.138 482.504 284.151 484.176 284.164 485.848C284.177 486.603 284.191 487.358 284.204 488.136C284.222 492.213 283.823 495.333 282 499C280.565 499.135 279.127 499.232 277.688 499.312C276.887 499.37 276.086 499.428 275.262 499.488C273 499 273 499 271.388 496.814C269.883 493.762 269.594 491.867 269.523 488.488C269.478 486.798 269.478 486.798 269.432 485.073C269.413 483.832 269.394 482.591 269.375 481.312C269.343 480.005 269.31 478.697 269.277 477.35C269.083 469.359 268.973 461.366 268.847 453.373C268.775 448.823 268.696 444.273 268.617 439.723C268.563 436.336 268.521 432.949 268.48 429.562C268.447 427.454 268.413 425.346 268.379 423.238C268.371 422.263 268.362 421.289 268.354 420.284C268.337 419.383 268.32 418.481 268.303 417.552C268.288 416.373 268.288 416.373 268.272 415.17C267.964 412.714 267.304 411.097 266 409C265.34 408.67 264.68 408.34 264 408C261.535 425.748 261.761 443.487 261.863 461.359C261.883 465.389 261.892 469.419 261.902 473.449C261.924 481.299 261.957 489.15 262 497C257.8 498.094 254.355 498.281 250 498C247.348 494.022 247.684 490.524 247.656 485.902C247.635 484.513 247.635 484.513 247.614 483.095C247.584 481.09 247.558 479.085 247.536 477.079C247.475 471.769 247.382 466.459 247.285 461.148C247.256 459.519 247.256 459.519 247.226 457.856C247.004 446.582 246.506 435.324 245.938 424.062C245.891 423.141 245.845 422.219 245.797 421.27C245.54 416.179 245.275 411.089 245 406C244.01 406 243.02 406 242 406C241.055 410.734 240.891 415.29 240.966 420.097C240.974 420.887 240.982 421.676 240.99 422.49C241.007 424.195 241.026 425.901 241.047 427.606C241.089 431.239 241.113 434.872 241.137 438.505C241.183 445.259 241.236 452.013 241.322 458.767C241.382 463.475 241.417 468.182 241.435 472.89C241.447 474.679 241.468 476.468 241.498 478.257C241.539 480.763 241.549 483.267 241.552 485.773C241.571 486.505 241.591 487.237 241.611 487.992C241.565 493.868 239.608 496.63 236 501C229.578 500.515 229.578 500.515 227.308 498.492C225.416 494.888 225.468 491.359 225.384 487.376C225.339 486.073 225.339 486.073 225.294 484.744C225.199 481.876 225.125 479.009 225.051 476.141C224.989 474.151 224.926 472.161 224.862 470.171C224.696 464.937 224.548 459.703 224.403 454.468C224.253 449.126 224.086 443.783 223.92 438.441C223.597 427.961 223.293 417.481 223 407C222.01 406.67 221.02 406.34 220 406C220 405.34 220 404.68 220 404C213.565 404.495 213.565 404.495 207 405C206.567 406.578 206.567 406.578 206.125 408.187C205.228 411.228 204.236 414.087 203 417C200.274 416.627 199.192 416.208 197.297 414.152C196.531 413.056 196.531 413.056 195.75 411.937C195.229 411.204 194.708 410.47 194.172 409.715C193.785 409.149 193.398 408.583 193 408C189.752 409.059 189.004 409.993 187.297 413.039C186.531 414.814 186.531 414.814 185.75 416.625C185.229 417.813 184.708 419.002 184.172 420.226C183.785 421.142 183.398 422.057 183 423C180.133 422.426 179.139 422.138 177 420C175.68 420 174.36 420 173 420C171.801 421.556 170.602 423.112 169.414 424.676C168 426 168 426 164.562 426.187C162.799 426.095 162.799 426.095 161 426C159.989 426.516 158.979 427.031 157.938 427.562C154.429 429.279 152.71 428.972 149 428C148.67 427.01 148.34 426.02 148 425C147.01 425 146.02 425 145 425C145.083 425.742 145.165 426.485 145.25 427.25C145 430 145 430 143.418 432.094C140.298 434.553 137.987 434.798 134.062 435.25C132.857 435.399 131.652 435.549 130.41 435.703C122.476 436.394 122.476 436.394 120.188 434.5C119.796 434.005 119.404 433.51 119 433C116.175 434.195 114.329 435.561 111.938 437.562C108.339 440.548 106.073 441.128 101.551 441.098C100.703 441.094 99.8557 441.091 98.9824 441.088C98.1013 441.079 97.2203 441.071 96.3125 441.062C95.4198 441.058 94.5271 441.053 93.6074 441.049C91.4049 441.037 89.2025 441.02 87 441C86.67 441.99 86.34 442.98 86 444C83.03 444.495 83.03 444.495 80 445C76 438.25 76 438.25 76 436C71.6677 436.86 71.6677 436.86 68 439C67.8738 441.268 67.8242 443.541 67.8125 445.812C67.7912 447.678 67.7912 447.678 67.7695 449.582C67.9815 452.725 68.3352 454.388 70 457C80.5259 457.564 90.7052 455.107 100.852 452.527C106.393 451.126 111.951 449.957 117.562 448.875C129.896 446.452 142.198 443.89 154.5 441.312C155.447 441.114 156.394 440.916 157.369 440.712C160.111 440.138 162.852 439.563 165.594 438.988C166.409 438.817 167.223 438.647 168.063 438.471C172.726 437.491 177.375 436.467 182.014 435.38C184.695 434.867 187.281 434.86 190 435C190 435.99 190 436.98 190 438C186.13 440.033 182.256 442.059 178.379 444.079C177.067 444.764 175.756 445.45 174.446 446.139C165.451 450.864 156.4 455.121 147 459C145.555 459.614 144.109 460.229 142.664 460.844C130.648 465.819 118.39 470.124 106.125 474.437C105.228 474.754 104.331 475.071 103.407 475.398C100.818 476.311 98.2257 477.217 95.6328 478.121C94.8522 478.397 94.0717 478.672 93.2675 478.956C92.531 479.211 91.7945 479.466 91.0356 479.728C90.3987 479.951 89.7617 480.173 89.1055 480.402C86.4564 481.154 83.7164 481.547 81 482C81 496.52 81 511.04 81 526C77.04 526 73.08 526 69 526C68.986 523.994 68.986 523.994 68.9717 521.948C68.9318 516.981 68.866 512.015 68.7925 507.048C68.7643 504.9 68.7431 502.752 68.729 500.603C68.7076 497.512 68.6609 494.422 68.6094 491.332C68.6081 490.373 68.6069 489.415 68.6057 488.427C68.484 482.871 67.9624 480.17 64 476C63.707 473.216 63.5922 470.712 63.625 467.937C63.4229 459.724 61.4218 454.008 57 447C56.1028 445.565 56.1028 445.565 55.1875 444.101C54.007 442.244 52.8161 440.394 51.6133 438.551C46 429.675 46 429.675 46 426C45.34 426 44.68 426 44 426C43.67 424.68 43.34 423.36 43 422C45.0128 421.317 47.0274 420.639 49.0469 419.976C51.0845 419.303 53.1155 418.609 55.1406 417.898C65.3761 414.464 75.758 412.291 86.3367 410.167C95.3073 408.367 104.156 406.34 113 404C119.418 402.311 125.8 400.827 132.336 399.664C138.015 398.627 143.625 397.423 149.227 396.027C149.916 395.857 150.605 395.687 151.315 395.511C154.11 394.819 156.905 394.123 159.693 393.404C182.85 387.46 206.777 387.469 230.541 386.591C237.208 386.343 243.874 386.08 250.54 385.819C252.176 385.755 253.813 385.691 255.449 385.627C266.611 385.191 277.765 384.699 288.917 384.057C325.716 381.944 362.548 380.811 399.406 380.754Z" fill="black" fill-opacity="0.8"/>
<path d="M311 341C313.381 342.584 315.204 344.005 317.25 345.937C318.379 346.95 319.51 347.962 320.641 348.973C321.201 349.482 321.761 349.991 322.338 350.516C324.819 352.731 327.404 354.795 330 356.875C332.692 359.034 335.186 361.187 337.625 363.633C339.961 366.114 339.961 366.114 343 368C343 368.66 343 369.32 343 370C321.55 370 300.1 370 278 370C277.67 368.35 277.34 366.7 277 365C277.481 364.585 277.962 364.171 278.458 363.743C284.267 358.703 289.865 353.464 295.439 348.166C296.116 347.527 296.792 346.888 297.488 346.23C298.394 345.37 298.394 345.37 299.318 344.493C303.299 340.96 305.742 340.384 311 341Z" fill="black" fill-opacity="0.8"/>
<path d="M500 350C501.641 351.987 503.07 353.931 504.5 356.062C505.383 357.343 506.267 358.623 507.152 359.902C507.844 360.908 507.844 360.908 508.55 361.933C510.019 364.028 511.532 366.082 513.066 368.129C513.567 368.797 514.067 369.466 514.582 370.154C515.553 371.447 516.528 372.737 517.508 374.024C519.726 376.998 521.263 379.368 522 383C521.307 382.879 520.614 382.758 519.9 382.633C510.353 380.999 500.768 379.731 491.162 378.5C489.924 378.335 488.686 378.17 487.41 378C486.298 377.856 485.185 377.711 484.039 377.562C481.132 377.024 478.693 376.202 476 375C477.535 369.544 481.2 366.016 485 362C485.479 361.494 485.958 360.987 486.452 360.465C488.04 358.799 489.642 357.147 491.25 355.5C491.769 354.959 492.289 354.418 492.824 353.861C496.652 350 496.652 350 500 350Z" fill="black" fill-opacity="0.8"/>
<path d="M136 371C136.99 371.495 136.99 371.495 138 372C138 372.66 138 373.32 138 374C138.66 374 139.32 374 140 374C140.33 375.32 140.66 376.64 141 378C140.01 378.495 140.01 378.495 139 379C138.67 378.34 138.34 377.68 138 377C137.34 377 136.68 377 136 377C136 375.02 136 373.04 136 371Z" fill="black" fill-opacity="0.8"/>
<path d="M507 365C508.32 365.66 509.64 366.32 511 367C510.67 367.66 510.34 368.32 510 369C508.669 369.343 507.336 369.676 506 370C505.34 370.66 504.68 371.32 504 372C504.613 369.038 505.254 367.619 507 365Z" fill="black" fill-opacity="0.8"/>
</svg>
